<?xml version="1.0" standalone="no"?>
<!DOCTYPE svg PUBLIC "-//W3C//DTD SVG 1.1//EN" "http://www.w3.org/Graphics/SVG/1.1/DTD/svg11.dtd" >
<svg xmlns="http://www.w3.org/2000/svg">
<metadata>Generated by IcoMoon</metadata>
<defs>
<font id="icomoon" horiz-adv-x="1024">
<font-face units-per-em="1024" ascent="960" descent="-64" />
<missing-glyph horiz-adv-x="1024" />
<glyph unicode="&#x20;" horiz-adv-x="512" d="" />
<glyph unicode="&#xe600;" glyph-name="df1" d="M987.278-27.88h-948.148v948.148h948.148v-948.148zM99.33 32.32h827.748v827.748h-827.748v-827.748z" />
<glyph unicode="&#xe601;" glyph-name="fd" d="M974.725 72.769l-120.296 120.296c-17.918 17.918-44 22.47-66.109 13.8l-41.038 41.038c65.675 73.984 101.439 168.126 101.439 267.903 0 107.942-42.050 209.525-118.418 285.749-76.368 76.368-177.807 118.418-285.749 118.418s-209.525-42.050-285.749-118.418c-157.505-157.65-157.505-413.993 0.145-571.715 76.368-76.368 177.807-118.418 285.749-118.418 99.777 0 193.919 35.908 267.903 101.439l41.038-41.038c-8.67-22.109-4.118-48.191 13.8-66.109l120.296-120.296c12.066-12.066 27.816-17.99 43.567-17.99s31.573 6.069 43.567 17.99c23.915 24.348 23.915 63.291-0.145 87.35zM444.699 185.552c-88.217 0-171.088 34.319-233.584 96.815-128.822 128.822-128.822 338.347 0 467.024 62.352 62.352 145.367 96.815 233.584 96.815s171.088-34.319 233.584-96.815c62.352-62.352 96.815-145.367 96.815-233.584s-34.319-171.088-96.815-233.584c-62.496-62.424-145.367-96.671-233.584-96.671z" />
<glyph unicode="&#xe602;" glyph-name="fr" d="M756.169 648.891c-13.294 143.489-107.508 204.973-173.978 230.694 5.997 20.519 18.424 41.399 44.073 43.928 0 0-70.444 9.971-92.841-29.261-1.59 0.361-3.107 0.65-4.552 0.939-4.046 16.329-27.6 39.882-130.195 28.322 0 0 35.764-8.453 48.263-42.122 0.072-0.145 0-0.217-0.145-0.289-66.542-24.782-164.369-85.833-177.952-232.212 0 0-115.094 2.601 28.756-185.683 0 0 20.953-34.030 20.953-60.184s75.863-141.249 190.957-141.249h6.141c115.094 0 190.957 115.094 190.957 141.249s20.953 60.184 20.953 60.184c143.705 188.284 28.611 185.683 28.611 185.683zM739.335 541.6c-0.795-1.806-16.618-37.281-52.309-65.314 0 0-34.030-170.004-170.004-170.004h-4.985c-135.975 0-170.004 170.004-170.004 170.004-35.692 28.033-51.514 63.508-52.309 65.314 0 0.072-0.072 0.072-0.072 0.145-39.16 107.147 41.905 60.112 41.905 60.112-5.78 38.726-2.818 66.687 5.058 86.845 0.361-8.237 1.951-17.123 5.13-26.66 0 0 13.077 47.107 73.262 15.678s120.296-86.339 261.545-57.511c0 0-75.863 21.603-75.863 68.349 0 0 0 0 0 0 0.434 0.145 73.117 20.447 91.469-38.004 0.072-0.145 0.072-0.217 0.072-0.361v-56.066c0 0 4.48 3.974 10.765 10.693 17.557 8.381 69.143 26.877 36.342-62.93 0.072-0.217 0-0.217 0-0.289zM879.139 204.264c-41.833 5.202-185.683 57.511-185.683 57.511l-102.017-214.51-52.309 96.743 39.232 60.184-65.82 31.357-65.82-31.357 39.232-60.184-52.309-96.743-102.017 214.51c0 0-143.85-52.309-185.683-57.511s-102.089-94.142-120.369-201.433h973.931c-18.352 107.291-78.536 196.231-120.369 201.433z" />
<glyph unicode="&#xe603;" glyph-name="fw" d="M513.505 869.098c111.972 0 223.944 0 335.915 0 68.929 0 115.885-46.956 116.186-115.584 0-137.858 0-275.715 0-413.874 0-65.919-46.354-112.273-112.574-113.176-33.11-0.301-32.809-0.301-42.14-32.207-14.448-49.665-28.896-99.33-43.043-149.296-3.010-10.234-7.224-14.147-18.662-14.147-86.086 0.602-172.172 0.602-257.956 0-11.739 0-16.856 3.913-19.866 14.749-18.361 62.006-47.257 118.895-84.581 171.57-5.719 8.127-12.040 9.331-20.769 9.331-63.812-0.301-127.323-0.602-191.135 0-68.929 0.602-114.079 46.655-114.38 115.584 0 136.052-0.301 272.103 0 408.155 0 72.842 47.257 118.895 120.099 118.594 110.768 0 221.837 0.301 332.905 0.301zM581.832 581.042c4.816 0 7.525-0.301 10.234 0 31.003 3.612 55.083-6.923 71.638-34.314 2.107-3.612 9.331-6.020 14.448-6.020 23.779 0 44.247-6.622 58.394-26.488 5.418-7.826 11.438-9.632 20.468-9.030 34.615 1.806 59.598-13.846 69.832-46.655 5.719-18.361 6.020-38.227 9.331-57.491 0.903-4.214 4.515-10.234 7.826-10.836 27.692-5.117 47.257 10.836 47.257 38.227 0.301 108.661 0.301 217.623 0 326.283 0 27.090-13.244 40.033-40.635 40.033-225.148 0-450.596 0-675.744 0-26.187 0-39.732-13.244-39.732-39.13 0-108.661 0-217.623 0-326.283 0-26.187 12.943-39.13 39.431-39.431 34.615-0.301 69.23 0.602 103.845-0.301 13.846-0.301 19.866 3.612 24.682 17.157 18.361 54.18 72.24 71.337 119.798 39.431 4.214-3.010 8.428-5.719 13.846-9.331 0.301 4.515 0.602 7.224 0.602 9.933 0 65.618-0.301 130.935 0.301 196.553 0 12.943 1.505 26.488 4.515 39.13 6.622 27.993 32.207 49.966 59.598 52.675 30.702 3.010 57.19-10.836 68.327-40.936 7.224-18.963 9.331-40.334 11.438-61.103 1.806-17.157 0.301-34.314 0.301-52.073zM478.89 310.443c-1.204-0.301-2.107-0.602-3.311-0.602-14.448 21.973-27.692 44.849-43.645 65.618-11.137 14.749-24.682 27.692-38.829 39.431-10.535 8.428-23.779 8.729-35.819 0.602-12.040-8.428-20.167-20.167-17.157-34.615 2.709-13.545 7.826-27.090 15.050-38.829 19.264-31.906 40.635-62.608 60.2-94.213 28.896-46.655 63.812-89.999 78.561-144.179 2.107-7.525 4.515-15.050 8.428-21.672 2.408-3.913 8.127-8.428 12.642-8.428 68.628-0.602 137.557-0.301 206.185-0.602 8.127 0 12.040 2.107 14.448 10.535 10.234 36.722 21.672 73.143 32.207 109.865 8.729 30.1 22.274 59.899 24.983 90.601 4.214 47.859 1.505 96.32-0.301 144.48-0.301 10.535-8.428 21.672-15.351 30.702-2.709 3.913-11.438 4.214-17.458 4.214-1.204 0-3.612-9.030-3.612-13.846-0.301-40.033-0.301-80.066 0-120.099 0-8.127-1.806-12.642-11.438-12.341-36.722 0.903-29.197-4.214-30.1 28.896 0 3.311 0 6.321 0 9.632-0.301 34.615 0.301 69.23-1.204 103.845-0.602 15.050-4.816 30.1-20.167 37.926-11.739 6.020-16.555 2.709-16.555-10.234 0-38.227 0-76.454 0-114.681 0-8.127 0-14.147-11.137-13.846-36.12 0.903-29.197-4.515-30.1 29.197 0 2.408 0 4.515 0 6.923-0.301 34.916 0.301 70.133-1.204 105.049-0.602 11.137-6.020 22.876-12.040 32.508-6.622 10.234-18.060 10.234-29.498 6.923-11.739-3.311-11.137-12.341-11.137-21.672 0.301-27.692 0.602-55.384 0.301-83.377-0.602-36.722-0.903-36.722-40.033-31.003-0.301 5.418-0.903 11.137-0.903 17.157 0 71.939 0.301 143.878-0.602 215.817-0.301 14.448-4.515 29.498-9.030 43.645-3.311 9.933-11.739 15.953-23.478 14.749s-21.371-6.923-24.682-18.361c-2.709-9.331-4.214-19.565-4.214-29.498-0.301-87.892 0-175.784 0-263.675 0-24.682 0-48.762 0-72.541z" />
<glyph unicode="&#xe604;" glyph-name="gb" d="M179.998 785.721c-183.309-183.309-183.309-480.395 0-663.704s480.395-183.309 663.704 0 183.309 480.395 0 663.704-480.395 183.309-663.704 0zM536.381 461.244l273.608-273.608-17.157-17.157-273.608 273.608-273.608-273.608-17.157 17.157 273.608 273.608-273.307 273.307 17.157 17.157 273.608-273.608 273.608 273.608 17.157-17.157-273.909-273.307z" />
<glyph unicode="&#xe605;" glyph-name="p2" d="M768.64-46.336c-20.864 2.688-42.112 4.736-62.976 8.704-15.232 2.944-30.080 8.32-45.056 12.8-8.064 2.432-16.128 4.224-23.808 6.912-7.168 2.432-14.080 5.12-21.12 7.808-10.496 3.84-20.864 7.808-30.976 11.904-9.856 3.84-19.712 7.808-29.568 11.904-10.496 4.48-20.864 8.96-30.72 14.080-13.184 6.528-26.24 13.44-39.040 20.864-19.072 11.008-38.528 21.76-56.32 34.304-27.776 19.328-55.168 39.68-81.408 60.8-50.048 40.576-95.104 86.144-135.424 136.32-25.984 32.256-50.432 65.664-74.624 99.328-14.080 19.328-27.136 39.68-38.784 60.544-11.904 21.76-22.016 44.8-32.256 67.712-6.912 15.232-12.8 30.464-18.176 46.208-4.48 12.8-7.808 25.984-11.392 38.784-2.048 7.168-4.224 14.592-6.016 22.016-4.736 18.816-8.32 38.144-14.336 56.704-6.912 21.76-2.432 43.52-2.944 65.28-0.896 7.424 3.328 15.488 5.632 23.552 2.048 7.168 4.224 14.592 6.912 21.504 3.84 11.008 7.424 22.016 12.288 32.512 6.912 14.976 14.592 29.824 22.656 44.416 11.264 21.12 25.6 39.936 45.312 54.016 17.28 12.288 36.736 20.608 56.704 25.088 19.712 4.48 40.32 5.376 60.288 7.424 7.808 0.896 13.696-3.84 19.712-8.704 10.752-8.704 16.64-20.864 23.296-32.256 11.904-20.608 23.296-41.216 34.944-61.696 13.696-23.808 27.392-47.744 41.216-71.296 8.704-14.592 17.536-29.184 25.984-44.16 8.064-14.592 6.528-29.568-4.48-41.728-11.648-13.184-24.704-25.088-37.888-36.736-19.072-17.024-39.040-33.408-58.112-50.688-6.528-5.632-11.648-13.184-16.64-20.224-6.272-9.6-5.12-19.712-0.896-30.080 11.648-30.976 29.568-59.008 47.488-86.528 36.096-55.168 78.464-105.344 127.616-149.504 29.824-26.88 61.44-50.944 94.848-72.832 17.536-11.648 36.736-21.76 55.168-31.872 11.648-6.272 23.552-11.904 35.456-17.024 11.648-4.736 23.552-2.944 31.872 5.632 17.024 16.768 33.152 34.944 49.28 52.48 15.488 17.024 30.080 34.304 45.952 50.944 11.008 11.648 25.088 17.28 40.832 13.184 8.96-2.432 17.28-7.424 25.6-11.904 19.072-10.752 38.144-21.76 56.96-32.768 12.8-7.424 25.6-14.976 38.784-22.4 13.44-7.808 27.392-14.592 40.576-22.912 20.864-13.184 41.728-27.136 62.080-41.472 2.432-1.792 3.584-6.528 4.224-10.112s0-7.168 0-10.752c0-24.448-5.12-47.744-12.544-71.040-11.392-34.944-33.664-61.184-63.488-80.896-16.384-10.752-34.944-18.816-53.12-27.136-15.872-7.168-31.872-13.184-48.384-18.432-19.968-6.272-40.576-7.424-61.184-8.576z" />
<glyph unicode="&#xe606;" glyph-name="kf2" d="M580.224 24.32c91.904 18.432 162.304 67.456 216.192 141.184 24.064 33.28 37.76 67.2 34.432 113.536-6.784 106.112-1.536 212.864-2.688 319.616-0.256 23.808-2.944 49.408-11.904 71.296-50.56 123.392-177.536 206.080-309.76 204.288-133.504-1.792-259.84-90.112-306.56-216.448-6.528-18.176-8.576-38.656-8.576-58.24-0.64-106.496 0-213.248-0.256-319.616 0-10.368-2.944-20.864-4.48-30.336-90.368-12.8-167.68 55.936-173.696 151.040-4.992 84.48 6.528 160.512 91.008 206.080 9.472 5.376 15.488 22.016 18.432 34.176 46.976 180.992 201.216 305.792 381.696 307.84 186.112 2.048 344.064-119.808 395.392-303.232 4.992-18.176 19.072-37.504 34.432-47.872 80-54.4 78.464-135.040 70.144-216.192-6.784-68.352-49.92-109.44-113.92-131.968-14.848-5.376-29.696-20.224-36.864-34.816-52.352-107.648-134.4-178.432-249.728-211.072-13.056-3.84-27.904-13.056-35.328-24.064-20.48-30.336-50.304-42.496-79.744-27.648-19.072 9.856-40.192 39.296-38.912 58.624 1.536 21.76 22.912 49.92 43.136 60.928 31.232 16.64 58.88-2.048 76.16-32.384 3.328-4.864 7.552-9.344 11.392-14.72z" />
<glyph unicode="&#xe607;" glyph-name="sp" d="M510.464 936.832c-269.312 0-487.68-218.368-487.68-487.68s218.368-487.68 487.68-487.68 487.68 218.368 487.68 487.68c0 269.312-218.368 487.68-487.68 487.68zM832.64 462.080c-11.904-34.432-43.52-125.824-136.448-125.824h-300.16l7.552-33.664h353.536c17.792 0 32.256-14.464 32.256-32.256s-14.464-32.256-32.256-32.256h-33.024c11.008-10.496 17.92-25.344 17.92-41.728 0-31.872-25.856-57.728-57.728-57.728s-57.728 25.856-57.728 57.728c0 16.384 6.912 31.232 17.92 41.728h-162.304c11.008-10.496 17.92-25.344 17.92-41.728 0-31.872-25.856-57.728-57.728-57.728s-57.728 25.856-57.728 57.728c0 16.384 6.912 31.232 17.92 41.728h-24.576c-15.104 0-28.16 10.496-31.488 25.216l-76.544 341.888h-103.424c-17.792 0-32.256 14.464-32.256 32.256s14.464 32.256 32.256 32.256h129.28c15.104 0 28.16-10.496 31.488-25.216l34.816-155.648h430.080c1.28 0 2.56-0.256 3.84-0.64 9.728 33.28 11.52 63.488 3.712 74.368-1.024 1.536-3.328 4.608-12.288 4.608h-334.464c-11.904 0-21.504 9.6-21.504 21.504s9.6 21.504 21.504 21.504h334.208c25.728 0 39.936-12.288 47.36-22.656 25.216-35.328 7.040-99.584-1.92-125.44zM386.432 379.264h309.76c40.704 0 67.456 23.808 89.984 81.28h-417.92l18.176-81.28z" />
<glyph unicode="&#xe608;" glyph-name="sd" d="M391.040 478.592c-7.424-2.176-13.312-6.016-17.792-11.264-4.352-5.248-6.656-11.136-6.656-17.536 0-5.888 2.048-11.264 6.016-16.384 3.968-4.992 10.112-9.088 18.304-12.16v57.344zM450.304 335.104c0 7.424-2.432 13.824-7.424 19.2s-13.184 9.472-24.448 12.416v-64.768c9.472 1.536 17.152 5.376 23.040 11.52s8.832 13.44 8.832 21.632zM513.408-38.528c267.904 0 484.992 217.088 484.992 484.992s-217.088 484.992-484.992 484.992-484.992-217.216-484.992-484.992 217.088-484.992 484.992-484.992zM269.056 715.776h505.472c67.584 0 122.496-54.912 122.496-122.496 0-57.984-40.448-106.496-94.592-119.168v-297.728l-50.944-48.384-25.856 39.424-34.56-39.424-32.896 37.632-32.896-37.632-34.432 39.424-34.56-39.424-34.432 39.424-34.56-39.424-34.432 39.424-34.432-39.424-32.896 37.632-33.024-37.632-34.432 39.424-28.928-39.424-48 48.512v297.6c-54.144 12.672-94.592 61.312-94.592 119.168 0 67.584 54.912 122.496 122.496 122.496zM241.152 544.768v44.672h561.408v-44.672c16.896 9.728 28.288 27.776 28.288 48.512 0 30.976-25.216 56.32-56.32 56.32h-505.472c-30.976 0-56.32-25.216-56.32-56.32 0.128-20.736 11.52-38.784 28.416-48.512zM267.136 572.928v-396.416l21.888-25.088 16.384 25.088h25.088l21.888-25.088 21.888 25.088h22.016l21.888-25.088 21.888 25.088h25.088l21.888-25.088 21.888 25.088h25.088l21.888-25.088 21.888 25.088h25.088l21.888-25.088 21.888 25.088h22.016l21.888-25.088 21.888 25.088h25.088l13.312-25.088 21.632 24.704v397.952l-505.344-1.152zM475.904 290.56c-13.824-13.696-32.896-22.144-57.472-25.216v-31.104h-27.392v30.208c-21.76 2.304-39.424 9.472-53.12 21.376-13.568 11.904-22.272 28.8-26.112 50.688l49.28 4.608c2.048-8.832 5.76-16.512 11.392-22.912 5.504-6.4 11.648-11.008 18.56-13.952v69.504c-24.704 6.144-42.752 15.616-54.272 28.16s-17.28 27.776-17.28 45.696c0 18.176 6.528 33.408 19.584 45.696s30.336 19.456 51.968 21.376v16.512h27.392v-16.384c19.968-2.048 35.968-8.064 47.744-18.048 11.776-9.856 19.328-23.168 22.656-39.808l-47.744-5.504c-2.944 13.056-10.496 21.888-22.656 26.496v-64.896c30.208-7.168 50.816-16.512 61.696-28.032 11.008-11.392 16.384-26.112 16.384-44.032 0.128-19.84-6.784-36.736-20.608-50.432zM708.736 283.648h-163.328c-7.040 0-12.672 5.632-12.672 12.672s5.632 12.672 12.672 12.672h163.328c7.040 0 12.672-5.632 12.672-12.672-0.128-6.912-5.76-12.672-12.672-12.672zM708.736 370.048h-163.328c-7.040 0-12.672 5.632-12.672 12.672s5.632 12.672 12.672 12.672h163.328c7.040 0 12.672-5.632 12.672-12.672s-5.76-12.672-12.672-12.672zM708.736 443.648h-163.328c-7.040 0-12.672 5.632-12.672 12.672s5.632 12.672 12.672 12.672h163.328c7.040 0 12.672-5.632 12.672-12.672-0.128-7.040-5.76-12.672-12.672-12.672z" />
<glyph unicode="&#xe609;" glyph-name="gb1" d="M954.469 835.085l-52.374 52.374-387.386-387.386-387.386 387.386-52.374-52.374 387.386-387.386-387.386-387.386 52.374-52.374 387.386 387.386 387.386-387.386 52.374 52.374-387.386 387.386z" />
<glyph unicode="&#xe60a;" glyph-name="cx" d="M513.792 940.288c-272.512 0-493.312-220.8-493.312-493.312s220.8-493.312 493.312-493.312 493.312 220.8 493.312 493.312-220.928 493.312-493.312 493.312zM472.32 171.392c-79.872 0-154.88 31.104-211.328 87.552s-87.552 131.456-87.552 211.328c0 79.872 31.104 154.88 87.552 211.328s131.456 87.552 211.328 87.552 154.88-31.104 211.328-87.552c56.448-56.448 87.552-131.456 87.552-211.328s-31.104-154.88-87.552-211.328c-56.448-56.576-131.456-87.552-211.328-87.552zM778.368 139.008c-11.52-2.56-21.376 1.536-29.696 9.728-24.704 24.704-49.408 49.408-74.112 74.112-0.768 0.768-1.408 1.536-2.432 2.816 17.792 11.776 32.64 26.368 44.416 44.416 1.024-0.64 1.536-0.896 2.048-1.28 25.472-25.472 51.2-50.56 76.288-76.544 17.92-18.56 8.704-47.616-16.512-53.248zM472.32 718.72c-137.088 0-248.576-111.488-248.576-248.576s111.488-248.576 248.576-248.576 248.576 111.488 248.576 248.576c0 137.088-111.488 248.576-248.576 248.576zM597.632 342.4c0-9.344-4.864-14.848-13.568-14.848-26.88-0.128-53.76-0.128-80.64-0.128-0.896 0-1.664 0.256-3.328 0.64l-55.424-0.128c-2.688-0.256-4.608-0.512-6.4-0.512-24.96 0-49.92 0-74.88 0-11.776 0-16.512 4.736-16.512 16.64 0 32.512-0.128 65.024 0.128 97.536 0 2.688 1.152 6.272 3.072 7.808 40.32 33.536 80.896 66.816 121.344 100.096 0.128 0.128 0.384 0.128 1.152 0.384 40.576-33.408 81.152-66.816 121.472-100.224 1.792-1.536 3.328-4.736 3.328-7.040 0.384-33.536 0.384-66.816 0.256-100.224zM643.84 457.6c-2.688-3.328-5.504-6.656-8.32-9.984-5.76-6.912-8.448-7.168-15.616-1.28-26.624 22.144-53.248 44.416-79.872 66.56-21.12 17.664-42.368 35.2-63.36 52.992-3.328 2.816-5.248 2.816-8.704 0-47.232-39.552-94.464-78.848-141.696-118.272-9.088-7.552-10.88-7.424-18.304 1.536-2.432 2.944-4.992 6.016-7.552 8.96-5.376 6.656-5.248 9.088 1.28 14.592 18.56 15.616 37.248 31.104 55.936 46.592 31.36 26.112 62.592 52.096 93.952 78.208 6.144 5.12 12.544 10.112 20.864 8.704 6.144-1.024 12.928-2.944 17.664-6.656 15.616-12.032 30.464-25.088 45.568-37.632 0.512-0.384 5.632-4.608 12.672-10.624v48.768c0 0.64 0.512 1.024 1.024 1.024h20.48c0.64 0 1.024-0.512 1.024-1.024v-67.584c15.104-12.544 29.696-24.704 31.36-26.112 13.568-10.88 26.752-22.016 40.064-33.152 7.424-6.144 7.552-8.32 1.536-15.616z" />
<glyph unicode="&#xe60b;" glyph-name="ss" d="M434.816 702.336c-96.512 0.128-176.64-80.128-176.256-176.512 0.384-96.768 78.976-175.232 175.616-175.488 97.408-0.256 176.256 78.208 176.384 175.488 0.256 97.152-78.72 176.384-175.744 176.512zM433.792 624.896c-65.408-6.4-94.72-51.456-97.408-97.664-12.416 0-24.96 0-37.504 0-3.072 68.48 58.368 136.448 134.912 135.168 0-13.184 0-25.344 0-37.504zM513.152 942.976c-273.536 0-495.232-221.696-495.232-495.232s221.696-495.232 495.232-495.232 495.232 221.696 495.232 495.232-221.696 495.232-495.232 495.232zM435.072 291.84c-129.408-0.256-234.88 104.448-235.008 233.472-0.128 129.28 104.96 235.392 233.216 235.52 130.432 0.128 235.392-103.936 235.776-233.856 0.384-130.432-103.552-234.88-233.984-235.136zM778.624 136.192c-21.376-4.736-39.424 2.816-54.656 18.048-45.568 45.44-91.136 91.008-136.704 136.576-1.28 1.28-2.432 2.816-4.48 5.12 32.768 21.76 60.032 48.512 81.792 81.92 1.792-1.152 2.944-1.664 3.712-2.432 46.976-46.848 94.464-93.312 140.544-140.928 33.28-34.304 16.256-87.936-30.208-98.304z" />
<glyph unicode="&#xe60c;" glyph-name="zc" d="M813.824 3.84l-310.016 207.36-317.44-206.592 126.976 333.952-298.112 199.552h373.76l133.632 356.736 99.584-356.736h384l-312.576-203.392 120.192-330.88zM293.888 453.504l122.496-81.92-58.752-154.496 146.816 95.488 141.568-94.72-54.912 151.040 129.92 84.48h-163.072l-47.104 168.704-63.232-168.704h-153.728z" />
<glyph unicode="&#xe60d;" glyph-name="y" horiz-adv-x="1021" d="M973.346 641.854c-24.98 59.327-61.062 112.756-106.858 158.726-45.796 45.796-99.052 81.705-158.726 106.858-61.409 26.021-126.807 39.204-194.288 39.204s-132.879-13.184-194.288-39.204c-59.327-24.98-112.756-61.062-158.726-106.858-45.97-45.97-82.052-99.399-106.858-158.553-26.021-61.409-39.204-126.807-39.204-194.288s13.184-132.879 39.204-194.461c24.98-59.327 61.062-112.756 106.858-158.726 45.796-45.796 99.052-81.705 158.726-106.858 61.409-26.021 126.807-39.204 194.288-39.204 67.133 0 132.532 13.184 194.288 39.204 59.327 24.98 112.756 61.062 158.726 106.858 45.796 45.796 81.705 99.052 106.858 158.726 26.021 61.409 39.204 126.807 39.204 194.288s-13.184 132.879-39.204 194.288zM513.475-46.479c-272.35 0-494.046 221.696-494.046 494.219 0 272.35 221.696 494.046 494.046 494.046s494.046-221.696 494.046-494.219c0-272.35-221.696-494.046-494.046-494.046z" />
<glyph unicode="&#xe60e;" glyph-name="news" d="M698.88 402.944c13.696 56.704 27.392 113.28 41.344 170.88 17.024 0 33.536 0 52.48 0-8.448-29.952-16.384-58.496-24.704-87.040-14.208-49.024-29.184-97.792-42.624-147.072-3.328-12.032-8.064-15.744-20.224-15.616-34.048 0.512-34.048 0-40.576 33.28-8.96 46.464-17.792 92.928-26.752 139.392-1.024 5.376-2.688 10.624-6.912 16.256-13.056-61.696-26.112-123.264-39.552-186.496-14.464 0-28.672-0.64-42.752 0.384-3.328 0.256-8.32 5.376-9.216 9.088-21.504 79.104-42.624 158.464-64.512 240.512 17.28 0 32.512 1.024 47.488-0.768 3.968-0.512 8.704-9.344 9.984-14.976 10.752-47.36 20.736-94.848 31.104-142.336 1.152-5.376 2.688-10.752 7.040-16.512 6.272 29.824 12.544 59.52 18.688 89.344 4.992 23.808 10.496 47.488 14.592 71.296 1.792 10.24 6.016 13.056 15.872 13.184 41.728 0.896 42.112 1.28 50.048-39.424 8.704-44.544 16.768-89.216 25.216-133.888 1.28 0.256 2.688 0.384 3.968 0.512zM55.296 504.704c0-56.576 0-113.152 0-171.264-17.408 0-32.512 0-47.616 0 0 82.432 0 164.864 0 248.96 17.408 0 32.384 1.28 46.976-0.64 5.632-0.768 12.032-7.68 15.36-13.44 26.24-45.952 51.84-92.416 77.568-138.624 3.328-5.888 6.656-11.776 14.080-17.28 0 55.296 0 110.464 0 166.784 17.92 0 32.512 0 48.256 0 0-82.56 0-164.48 0-248.448-16.896 0-32.384-1.152-47.488 0.64-4.864 0.64-9.984 8.192-13.056 13.696-30.080 53.248-59.648 106.496-89.344 159.872-1.536-0.128-3.2-0.128-4.736-0.256zM449.536 373.248c0-17.536 0-30.336 0-44.16-62.976 0-125.056 0-187.648 0 0 83.456 0 165.376 0 248.832 62.080 0 122.24 0 183.68 0 0-14.72 0-28.032 0-43.008-42.752 0-85.376 0-129.792 0 0-18.048 0-34.432 0-53.632 39.296 0 78.848 0 119.296 0 0-15.744 0-28.544 0-42.752-40.064 0-79.616 0-120.832 0 0-21.376 0-41.728 0-65.152 44.032-0.128 89.088-0.128 135.296-0.128zM1014.528 497.536c-21.504 0-36.864 0-52.096 0-14.592 32.768-39.808 45.696-71.808 36.992-14.592-3.968-24.192-12.16-25.344-28.288-1.024-15.616 10.112-20.352 21.632-23.936 22.656-6.912 45.568-12.544 68.224-19.456 47.488-14.592 62.592-33.536 60.672-74.496-1.664-35.456-26.112-62.72-69.248-68.864-25.216-3.584-52.608-2.432-77.44 3.2-36.736 8.32-55.68 36.608-57.984 77.44 13.568 0 27.264 0.768 40.576-0.512 3.712-0.384 8.576-5.888 10.24-10.112 12.928-32.64 73.472-43.648 97.28-17.28 12.416 13.696 7.808 33.92-10.88 40.832-17.408 6.528-35.84 10.368-53.76 15.744-12.544 3.712-25.216 7.168-37.248 12.16-46.976 19.456-56.704 80-18.688 114.56 38.912 35.456 119.808 31.232 152.576-9.728 10.368-12.672 14.848-29.952 23.296-48.256zM209.28 269.056c42.112 0 80.64 0.256 119.040-0.384 4.352-0.128 10.752-4.096 12.672-7.936 28.672-56.832 66.816-106.368 111.616-151.168 1.152-1.152 1.536-3.2 3.456-7.168-107.392 19.712-188.032 74.752-246.784 166.656zM811.776 265.344c-62.464-93.44-144.256-146.56-249.472-163.584-1.664 1.792-3.456 3.712-5.12 5.504 13.184 11.776 28.544 21.888 39.168 35.712 27.264 35.456 52.224 72.576 78.848 108.544 4.48 6.016 12.416 12.928 18.944 13.184 37.248 1.28 74.624 0.64 117.632 0.64zM452.736 795.648c-19.968-23.424-40.832-45.44-58.88-69.76-18.048-24.448-33.92-50.688-49.28-76.928-5.632-9.728-10.624-14.592-22.656-14.336-35.2 0.896-70.528 0.384-106.88 0.384 28.672 71.936 160.896 160.384 237.696 160.64zM811.136 631.168c-38.144 0-75.904-0.128-113.664 0.256-3.456 0-8.704 3.072-10.112 6.016-27.648 58.496-65.792 109.44-111.616 156.416 74.112 1.408 207.36-91.136 235.392-162.688zM659.712 632.832c-45.824 0-87.936 0-131.2 0 0 55.68 0 109.952 0 169.088 55.68-50.048 98.816-103.936 131.2-169.088zM499.968 800.896c0-57.088 0-111.36 0-166.016-44.928 0-87.424 0-132.992 0 33.792 65.664 78.848 118.272 132.992 166.016zM523.136 265.728c43.904 0 84.736 0 128.512 0-33.152-62.208-76.544-111.616-128.512-157.952 0 54.4 0 106.112 0 157.952zM494.592 267.776c0-53.504 0-104.832 0-160.896-52.992 48-94.848 99.072-126.72 160.896 43.136 0 84.096 0 126.72 0z" />
<glyph unicode="&#xe60f;" glyph-name="yy" horiz-adv-x="1003" d="M986.773 933.048v-970.77h-970.77v970.77h970.77zM294.112 122.473l59.631-59.631 384.737 384.737-384.737 384.737-59.631-59.631 325.275-325.275-325.275-324.938z" />
<glyph unicode="&#xe610;" glyph-name="z" horiz-adv-x="1003" d="M16.003 933.048v-970.77h970.77v970.77h-970.77zM708.664 122.473l-59.631-59.631-384.737 384.737 384.737 384.737 59.631-59.631-325.275-325.106 325.275-325.106z" />
<glyph unicode="&#xe611;" glyph-name="j" d="M991.198 496.155h-444.916v446.505h-72.25v-446.505h-434.945v-72.25h434.945v-433.428h72.25v433.428h444.916z" />
<glyph unicode="&#xe612;" glyph-name="zs" d="M219.062 256.646c-52.165 0-94.792 42.7-94.792 94.792v404.456c0 52.165 42.7 94.792 94.792 94.792h595.124c52.165 0 94.792-42.7 94.792-94.792v-267.036c34.174-20.88 61.991-51.081 80.125-86.989v414.643c0 52.165-42.7 94.792-94.792 94.792h-755.374c-52.165 0-94.792-42.7-94.792-94.792v-525.691c0-52.165 42.7-94.792 94.792-94.792h472.154c-10.982 18.568-19.146 39.015-24.132 60.618h-367.897zM796.774 89.82h-2.962c-33.452 0.434-65.097 8.526-93.203 22.614v-133.446l93.203 93.203v0.506h2.962v-0.506l93.203-93.203v133.446c-28.105-14.089-59.751-22.181-93.203-22.614zM230.911 710.665h565.862v-66.904h-565.862v66.904zM230.911 587.117h565.862v-66.904h-565.862v66.904zM230.911 460.68h288.494v-66.904h-288.494v66.904zM796.774 440.956c-75.068 0-135.902-60.835-135.902-135.902s60.835-135.902 135.902-135.902c75.068 0 135.902 60.835 135.902 135.902s-60.835 135.902-135.902 135.902zM866.061 207.010l-72.033 53.899-65.675-46.457 25.432 76.585-54.404 40.677h67.987l26.444 79.764 28.178-79.764h72.178l-57.728-40.821 29.623-83.882z" />
<glyph unicode="&#xe613;" glyph-name="jh" d="M641.716 480.519h-602.621v-72.265h952.313v72.265z" />
<glyph unicode="&#xe614;" glyph-name="k" d="M903.901 748.999h-781.695c-54.18 0-98.427-44.247-98.427-98.427v-467.151c0-54.18 44.247-98.427 98.427-98.427h781.695c54.18 0 98.427 44.247 98.427 98.427v467.452c0 54.18-44.247 98.126-98.427 98.126zM122.206 688.8h781.695c21.070 0 38.227-17.157 38.227-38.227v-61.404h-858.149v61.404c0 21.371 17.157 38.227 38.227 38.227zM903.901 145.195h-781.695c-21.070 0-38.227 17.157-38.227 38.227v236.586h858.149v-236.586c0-21.070-17.157-38.227-38.227-38.227zM420.496 298.704h-236.285c-16.555 0-30.1-13.545-30.1-30.1s13.545-30.1 30.1-30.1h236.285c16.555 0 30.1 13.545 30.1 30.1s-13.545 30.1-30.1 30.1zM866.878 298.704h-307.019c-16.555 0-30.1-13.545-30.1-30.1s13.545-30.1 30.1-30.1h307.019c16.555 0 30.1 13.545 30.1 30.1s-13.545 30.1-30.1 30.1z" />
<glyph unicode="&#xe615;" glyph-name="kf" d="M582.735 19.979c93.009 18.662 164.346 68.327 218.827 142.975 24.381 33.712 38.227 68.026 34.916 114.982-6.923 107.457-1.505 215.516-2.709 323.574-0.301 24.080-3.010 49.966-12.040 72.24-51.17 124.915-179.697 208.593-313.641 206.787-135.149-1.806-263.073-91.203-310.33-219.128-6.622-18.361-8.729-39.13-8.729-58.996-0.602-107.758 0-215.817-0.301-323.574 0-10.535-3.010-21.070-4.515-30.702-91.504-12.943-169.764 56.588-175.784 152.908-5.117 85.484 6.622 162.54 92.106 208.593 9.632 5.418 15.652 22.274 18.662 34.615 47.558 183.008 203.777 309.427 386.483 311.534 188.426 2.107 348.256-121.303 400.329-307.019 5.117-18.361 19.264-37.926 34.916-48.461 80.969-55.083 79.464-136.654 71.036-218.827-6.923-69.23-50.568-110.768-115.283-133.644-15.050-5.418-30.1-20.468-37.324-35.217-52.976-108.962-136.052-180.6-252.84-213.71-13.244-3.913-28.294-13.244-35.819-24.381-20.769-30.702-50.869-43.043-80.668-27.993-19.264 9.933-40.635 39.732-39.431 59.297 1.505 21.973 23.177 50.568 43.645 61.705 31.605 16.856 59.598-2.107 77.056-32.809 3.311-4.816 7.525-9.331 11.438-14.749z" />
<glyph unicode="&#xe616;" glyph-name="l" d="M727.817-49.853l42.742 42.742-455.412 455.111 455.412 455.412-42.742 42.441-497.853-497.853z" />
<glyph unicode="&#xe617;" glyph-name="ls" d="M569.19 240.912c-21.672-24.983-45.752-44.849-72.24-59.899-26.789-15.050-53.277-22.575-80.367-22.575-29.498 0-58.093 8.729-86.086 25.886-27.692 17.157-50.568 43.645-67.725 79.464-17.458 35.819-26.187 74.949-26.187 117.691 0 52.675 13.545 105.35 40.635 158.326s60.501 92.407 100.534 118.895c40.033 26.488 78.862 39.732 116.788 39.732 28.896 0 56.287-7.525 82.474-22.575s48.762-37.926 67.424-68.929l16.856 77.056h88.795l-71.638-333.507c-9.933-46.354-15.050-71.939-15.050-77.056 0-9.030 3.311-16.555 10.234-23.177 6.923-6.321 15.050-9.632 24.682-9.632 17.458 0 40.635 10.234 68.929 30.401 37.625 26.488 67.725 62.006 89.698 106.554s33.11 90.601 33.11 137.858c0 55.384-14.147 106.855-42.441 155.015s-70.434 86.387-126.721 115.283c-56.287 28.896-118.293 43.344-186.018 43.344-77.658 0-148.393-18.060-212.506-54.481s-113.778-88.193-148.995-155.918c-35.217-67.725-52.976-140.266-52.976-217.924 0-81.27 17.759-151.102 52.976-209.797s86.387-102.039 152.908-130.032c66.822-27.993 140.567-41.839 221.837-41.839 86.688 0 159.53 14.448 218.225 43.645s102.641 64.715 131.537 106.253h89.999c-16.856-34.916-45.752-70.133-86.989-106.253-40.936-36.12-89.999-64.715-146.587-85.785s-124.915-31.605-204.68-31.605c-73.444 0-141.47 9.331-203.476 28.294s-114.982 47.257-158.627 85.183c-43.043 38.528-76.153 82.173-98.427 131.537-27.692 62.608-41.839 130.032-41.839 202.573 0 80.668 16.555 157.724 49.665 231.168 40.334 89.698 97.825 158.627 172.172 206.185s164.647 71.638 270.598 71.638c82.173 0 155.918-16.856 221.235-50.568s117.089-83.678 154.714-150.199c32.207-57.19 48.16-119.497 48.16-186.921 0-96.019-33.712-181.202-101.437-255.85-60.2-66.822-126.119-100.233-197.757-100.233-22.876 0-41.237 3.612-55.384 10.535s-24.381 16.856-31.003 29.799c-3.913 8.127-6.923 22.274-9.030 42.441zM328.691 375.76c0-45.451 10.836-80.668 32.207-105.952 21.672-25.284 46.354-37.625 74.046-37.625 18.662 0 38.227 5.418 58.695 16.555s40.033 27.692 58.996 49.364c18.662 21.973 34.013 49.665 46.053 83.076 12.040 33.712 17.759 67.424 17.759 101.136 0 45.15-11.137 80.066-33.411 104.748-22.274 24.983-49.665 37.324-81.872 37.324-21.070 0-41.237-5.418-59.899-16.254s-36.722-27.993-54.481-51.772c-17.458-23.779-31.605-52.976-42.14-86.989s-15.953-65.317-15.953-93.611z" />
<glyph unicode="&#xe618;" glyph-name="lx" d="M884.485 219.292c-42.122 5.274-187.055 57.945-187.055 57.945l-102.74-70.083h-158.95l-102.74 70.083c0 0-144.934-52.67-187.055-57.945s-102.74-94.864-121.236-202.878h981.011c-18.424 108.014-79.042 197.604-121.236 202.878zM514.709 279.043h7.442c191.679 53.61 199.266 189.584 199.266 189.584 156.132 179.614 30.49 192.041 30.49 192.041 0 210.753-229.755 230.694-229.755 230.694h-7.442c0 0-229.755-19.941-229.755-230.694 0 0-125.643-12.499 30.49-192.041 0 0 7.586-135.975 199.266-189.584zM315.155 619.558c9.971-7.514 29.912-14.956 29.912-14.956 0 169.643 88.579 128.461 105.991 119.718 17.485-8.742 67.337-11.199 67.337-11.199s49.853 2.529 67.337 11.199c17.485 8.742 105.991 49.853 105.991-119.718 0 0 19.941 7.514 29.912 14.956 9.971 7.514 84.822-17.485-37.426-129.689v-33.669c0 0-61.124-132.218-165.886-132.218s-165.742 132.145-165.742 132.145v33.669c-122.247 112.277-47.396 137.203-37.426 129.761zM493.54 573.607h46.023v-38.871h127.81v72.322h-127.81v-23.337h-46.023v23.337h-127.81v-72.322h127.81v38.871zM570.27 584.083h76.802v-36.848h-76.802v36.848zM462.762 547.163h-76.802v36.848h76.802v-36.848z" />
<glyph unicode="&#xe619;" glyph-name="p" d="M774.772-51.358c-21.070 2.709-42.441 4.816-63.511 8.729-15.351 3.010-30.401 8.428-45.451 12.943-8.127 2.408-16.254 4.214-24.080 6.923-7.224 2.408-14.147 5.117-21.371 7.826-10.535 3.913-21.070 7.826-31.304 12.040-9.933 3.913-19.866 7.826-29.799 12.040-10.535 4.515-21.070 9.030-31.003 14.147-13.244 6.622-26.488 13.545-39.431 21.070-19.264 11.137-38.829 21.973-56.889 34.615-27.993 19.565-55.685 40.033-82.173 61.404-50.568 40.936-96.019 86.989-136.654 137.557-26.187 32.508-50.869 66.22-75.25 100.233-14.147 19.565-27.391 40.033-39.13 61.103-12.040 21.973-22.274 45.15-32.508 68.327-6.923 15.351-12.943 30.702-18.361 46.655-4.515 12.943-7.826 26.187-11.438 39.13-2.107 7.224-4.214 14.749-6.020 22.274-4.816 18.963-8.428 38.528-14.448 57.19-6.923 21.973-2.408 43.946-3.010 65.919-0.903 7.525 3.311 15.652 5.719 23.779 2.107 7.224 4.214 14.749 6.923 21.672 3.913 11.137 7.525 22.274 12.341 32.809 6.923 15.050 14.749 30.1 22.876 44.849 11.438 21.371 25.886 40.334 45.752 54.481 17.458 12.341 37.023 20.769 57.19 25.284 19.866 4.515 40.635 5.418 60.802 7.525 7.826 0.903 13.846-3.913 19.866-8.729 10.836-8.729 16.856-21.070 23.478-32.508 12.040-20.769 23.478-41.538 35.217-62.307 13.846-24.080 27.692-48.16 41.538-71.939 8.729-14.749 17.759-29.498 26.187-44.548 8.127-14.749 6.622-29.799-4.515-42.14-11.739-13.244-24.983-25.284-38.227-37.023-19.264-17.157-39.431-33.712-58.695-51.17-6.622-5.719-11.739-13.244-16.856-20.468-6.321-9.632-5.117-19.866-0.903-30.401 11.739-31.304 29.799-59.598 47.859-87.29 36.421-55.685 79.163-106.253 128.828-150.801 30.1-27.090 62.006-51.471 95.718-73.444 17.759-11.739 37.023-21.973 55.685-32.207 11.739-6.321 23.779-12.040 35.819-17.157 11.739-4.816 23.779-3.010 32.207 5.719 17.157 16.856 33.411 35.217 49.665 52.976 15.652 17.157 30.401 34.615 46.354 51.471 11.137 11.739 25.284 17.458 41.237 13.244 9.030-2.408 17.458-7.525 25.886-12.040 19.264-10.836 38.528-21.973 57.491-33.11 12.943-7.525 25.886-15.050 39.13-22.575 13.545-7.826 27.692-14.749 40.936-23.177 21.070-13.244 42.14-27.391 62.608-41.839 2.408-1.806 3.612-6.622 4.214-10.234s0-7.224 0-10.836c0-24.682-5.117-48.16-12.642-71.638-11.438-35.217-34.013-61.705-64.113-81.571-16.555-10.836-35.217-18.963-53.578-27.391-15.953-7.224-32.207-13.244-48.762-18.662-19.866-6.321-40.635-7.525-61.404-8.729z" />
<glyph unicode="&#xe61a;" glyph-name="r" d="M399.125-49.853l-42.742 42.742 455.412 455.111-455.412 455.412 42.742 42.441 497.853-497.853z" />
<glyph unicode="&#xe61b;" glyph-name="sq" d="M732.633 757.427c-2.408-4.515-4.515-8.729-6.622-12.943-19.264-37.023-37.023-74.347-53.277-112.875-10.535-24.983-20.468-50.267-27.993-76.454-2.408-8.729-4.214-17.759-5.719-26.789-0.602-3.311 0-6.923 0.602-10.535 0.602-3.311 3.311-4.515 6.321-3.311 3.612 1.806 7.525 3.612 10.234 6.321 8.729 9.030 17.458 17.759 25.284 27.391 25.284 31.906 47.558 65.919 68.327 100.835 13.846 23.478 27.391 47.257 40.936 70.735 0.903 1.505 1.806 3.010-0.602 4.515-19.264 11.137-38.227 21.973-57.491 33.11zM803.367 745.086c3.311 6.020 6.622 11.739 9.632 17.759 11.438 22.575 23.478 45.15 34.314 68.026 4.816 9.933 8.428 20.468 11.137 31.003 6.020 23.478-11.137 35.217-28.294 37.926-5.117 0.903-10.234-1.204-13.846-4.515-5.719-5.719-12.040-11.137-16.555-18.060-12.341-19.565-24.080-39.732-35.819-59.899-7.224-12.341-13.545-24.983-20.769-37.625 20.468-11.739 40.033-23.177 60.2-34.615zM798.852 693.917c0-7.224 4.515-10.234 10.234-7.525 9.331 4.214 15.050 11.739 19.866 20.167 8.428 15.351 16.555 31.003 24.682 46.354 10.234 20.167 20.167 40.334 30.1 60.2 1.505 3.010 2.709 6.020 3.913 9.030 1.806 4.515 0.301 8.428-3.612 11.137-9.632 6.321-12.341 5.117-17.458-5.117-12.943-26.488-26.187-52.675-39.732-78.862-8.729-17.458-17.759-34.615-26.789-51.772-0.602-1.204-0.903-2.709-1.204-3.612zM859.955 449.204h-418.389c-4.816 0-8.729 3.913-8.729 8.729v0c0 4.816 3.913 8.729 8.729 8.729h418.69c4.816 0 8.729-3.913 8.729-8.729v0c0-4.816-4.214-8.729-9.030-8.729zM859.955 392.315h-418.389c-4.816 0-8.729 3.913-8.729 8.729v0c0 4.816 3.913 8.729 8.729 8.729h418.69c4.816 0 8.729-3.913 8.729-8.729v0c0-4.816-4.214-8.729-9.030-8.729zM859.955 331.513h-418.389c-4.816 0-8.729 3.913-8.729 8.729v0c0 4.816 3.913 8.729 8.729 8.729h418.69c4.816 0 8.729-3.913 8.729-8.729v0c0-4.816-4.214-8.729-9.030-8.729zM859.955 270.41h-418.389c-4.816 0-8.729 3.913-8.729 8.729v0c0 4.816 3.913 8.729 8.729 8.729h418.69c4.816 0 8.729-3.913 8.729-8.729v0c0-4.816-4.214-8.729-9.030-8.729zM859.955 195.762h-270.598c-4.816 0-8.729 3.913-8.729 8.729v0c0 4.816 3.913 8.729 8.729 8.729h270.598c4.816 0 8.729-3.913 8.729-8.729v0c0.301-4.816-3.913-8.729-8.729-8.729zM859.955 134.66h-270.598c-4.816 0-8.729 3.913-8.729 8.729v0c0 4.816 3.913 8.729 8.729 8.729h270.598c4.816 0 8.729-3.913 8.729-8.729v0c0.301-4.816-3.913-8.729-8.729-8.729zM553.839 514.521h-112.574c-4.816 0-8.428 3.913-8.428 8.428v83.076c0 4.816 3.913 8.428 8.428 8.428h112.574c4.816 0 8.428-3.913 8.428-8.428v-83.076c0-4.515-3.913-8.428-8.428-8.428zM973.131 774.885h-77.357l-50.267-92.106h76.454c6.622 0 11.739-5.418 11.739-11.739v-639.323h-404.844v121.303c0 3.010-4.816 20.769-19.565 20.769h-129.129v496.95c0 6.622 5.418 11.739 11.739 11.739h263.374l50.267 92.106h-364.811c-6.622 0-11.739-5.418-11.739-11.739v-594.775l192.64-192.64h463.539v787.715c-0.301 6.321-5.418 11.739-12.040 11.739zM84.882 335.125v498.154c0 5.117 4.214 9.331 9.331 9.331h412.971c5.117 0 9.331-4.214 9.331-9.331v-11.137h40.033v83.076c0 5.117-4.214 9.331-9.331 9.331h-493.037c-5.117 0-9.331-4.214-9.331-9.331v-613.738h213.71v43.645h-173.677z" />
<glyph unicode="&#xe61c;" glyph-name="ts" d="M237.919 260.114c0-72.9 0.289-145.873-0.072-218.773-0.217-44.867-15.1-59.245-60.329-59.606-27.166-0.217-54.404-0.289-81.57 0.072-32.874 0.434-50.575 17.123-50.647 50.214-0.217 153.242-0.072 306.412-0.145 459.655 0 33.813 17.701 49.708 50.503 50.069 29.695 0.289 59.317 0.795 89.012-0.145 38.437-1.228 52.743-16.040 53.032-55.199 0.506-75.501 0.145-150.93 0.217-226.287zM995.606 260.186c0-72.9 0.217-145.873-0.072-218.773-0.145-44.94-14.811-59.317-59.751-59.679-27.166-0.217-54.404-0.072-81.57 0-33.307 0.072-50.936 17.918-51.081 50.142-0.578 153.242-0.434 306.485-0.072 459.727 0.072 30.562 15.173 49.058 47.179 49.708 32.151 0.65 64.23 0.723 96.382 0.217 33.38-0.506 49.13-18.207 48.986-51.442-0.145-76.657 0-153.315 0-229.9zM297.742 196.895c0 53.032-0.361 106.135 0.072 159.167 0.361 41.183 14.956 55.777 54.982 56.211 28.394 0.289 56.789 0.434 85.183 0 36.27-0.578 51.948-14.956 52.237-51.514 0.723-108.592 0.65-217.184 0.072-325.775-0.217-35.981-16.401-52.165-51.37-53.176-29.623-0.795-59.245-0.723-88.868 0-35.692 0.867-51.587 16.401-52.165 52.237-0.723 54.26-0.145 108.592-0.145 162.852zM743.092 199.207c0-54.332 0.506-108.592-0.145-162.924-0.434-38.293-15.967-53.754-53.682-54.477-28.394-0.578-56.789-0.578-85.111 0-36.197 0.795-53.321 16.040-53.537 50.936-0.723 109.82-0.65 219.64 0 329.46 0.217 31.718 15.245 51.009 49.997 50.286 30.851-0.65 61.702-0.506 92.552-0.072 34.463 0.506 49.419-18.352 49.78-50.431 0.578-54.188 0.145-108.52 0.145-162.779zM464.712 748.307c1.734-11.271 14.017-19.435 27.527-18.063 0 15.317 0 30.634 0 46.023-18.063-2.89-29.55-14.811-27.527-27.961zM544.26 664.642c0-17.34 0-34.752 0-52.165 22.614 1.806 37.137 14.595 35.258 30.706-1.445 12.861-19.074 23.77-35.258 21.458zM521.356 932.039c-129.328 0.434-238.497-108.231-238.497-237.558 0-129.255 109.17-237.992 238.425-237.558 129.255 0.506 237.486 110.037 236.619 239.364-0.867 127.81-108.809 235.318-236.547 235.752zM611.38 592.103c-18.424-19.074-40.749-30.201-68.060-33.091 0-11.921 0-23.843 0-36.342-17.557 0-34.174 0-51.659 0 0 10.043-0.289 19.941 0.072 29.767 0.217 5.274-1.084 7.37-6.719 9.031-42.628 12.427-71.383 38.365-79.331 83.81-0.289 1.662-0.506 3.251-0.65 4.913-0.072 1.156 0 2.312 0 4.48 16.473 0 32.007-0.145 47.613 0.072 5.274 0.072 6.936-2.095 7.948-7.297 3.035-15.389 11.054-27.455 26.371-33.38 0.867-0.361 1.806-0.578 2.746-0.723 0.434-0.072 0.939 0.145 1.806 0.361 0 19.869 0 39.882 0 60.257-8.453 2.095-16.979 3.829-25.288 6.214-15.462 4.407-29.55 11.343-40.605 23.337-24.132 26.155-22.036 70.299 4.841 96.96 15.751 15.606 34.969 24.782 56.716 28.322 4.769 0.795 5.708 2.601 5.636 6.864-0.217 10.115-0.072 20.23-0.072 30.706 17.196 0 33.669 0 50.792 0 0-12.355 0-24.276 0-36.631 29.767-3.974 53.971-16.69 71.022-41.183 9.104-13.077 13.511-27.816 13.222-44.434-17.774 0-35.114 0-52.959 0-3.757 16.329-11.271 29.55-30.417 33.018 0-19.219 0-37.787 0-55.705 13.439-3.468 26.877-6.141 39.738-10.332 59.968-19.508 59.895-85.255 27.238-118.996z" />
<glyph unicode="&#xe61d;" glyph-name="yh" d="M635.41 535.892c54.481 38.829 89.999 102.34 89.999 173.978 0 117.691-95.718 213.409-213.409 213.409s-213.409-96.019-213.409-213.71c0-71.638 35.518-135.149 89.698-173.677-199.262-58.394-346.149-254.947-346.149-487.92h60.2c0 245.616 183.61 445.479 409.359 445.479s409.359-199.864 409.359-445.479h60.2c0 232.673-146.587 429.225-345.848 487.92zM358.791 709.568c0 84.581 68.628 153.209 153.209 153.209s153.209-68.628 153.209-153.209-68.628-153.209-153.209-153.209-153.209 68.929-153.209 153.209z" />
<glyph unicode="&#xe61e;" glyph-name="qy" horiz-adv-x="1243" d="M1039.605 368.57c-11.31 23.408-40.504 38.575-62.422 56.636-118.356 97.666-236.888 195.332-356.296 293.699-3.682-2.455-5.699-3.419-7.364-4.91-134.751-110.992-269.852-222.071-404.252-333.852-6.926-5.874-11.573-18.411-11.573-27.967 0-7.364-0.175-14.553-0.175-21.918v0-1.49c-0.701-101.874-0.438-203.923-0.263-305.885 0-2.893 0.175-5.699 0.263-8.329v-47.255h152.285c32.526 0 65.14 0 97.841 0v458.17h347.441v-458.17c32.701 0 65.49 0 98.192 0v0h152.285v363.047h-0.175c0.526 13.94-0.438 27.178-5.786 38.225zM1196.975 457.907c-44.975 37.436-89.512 75.31-135.189 111.868l-204.8 170.959c-59.529 49.885-113.885 95.211-168.241 140.625-46.466 38.663-88.022 38.926-134.049 0.701-101.786-84.778-203.397-169.381-305.008-254.071-67.945-56.636-135.978-113.184-203.923-169.907-21.918-18.411-22.619-27.266-4.647-49.359 8.855-10.784 17.885-21.216 26.827-31.912 23.584-28.055 29.984-28.581 58.74-4.734 159.562 132.822 319.036 265.644 478.247 399.079 12.712 10.608 20.164 11.047 32.701 0.175 35.156-30.948 71.627-60.23 107.485-90.214 125.37-104.329 250.564-208.745 375.759-313.074 21.918-18.236 31.211-17.447 49.359 3.858 10.521 12.274 20.866 24.548 31.036 36.91 18.236 22.005 17.534 30.86-4.296 49.096z" />
<glyph unicode="&#xe61f;" glyph-name="hy" horiz-adv-x="1251" d="M1207.702-29.131h-1164.623c-9.975 0-18.45 8.474-18.45 18.45v69.385c0 9.975 8.474 18.45 18.45 18.45h1164.623c9.975 0 18.45-8.474 18.45-18.45v-69.473c-0.088-10.328-8.474-18.361-18.45-18.361zM1114.836 186.439h-57.114c-29.131 0-53.319 24.188-53.319 53.672v293.87c0 29.572 23.746 53.319 53.319 53.672v0h-6.532c22.599 1.501 40.695 20.303 40.695 42.99 0 14.919-7.68 27.983-19.156 35.663v0l-393.269 240.905c0 0-47.934 31.073-106.637 0-3.796-2.295-389.738-237.462-389.738-237.462h0.353c-14.566-6.886-24.894-21.892-24.894-39.106 0-23.746 19.597-42.99 42.99-42.99h1.501c28.425-1.501 51.023-24.894 51.023-53.319v-293.782c0-27.983-21.892-50.67-49.081-52.966v-0.353h-69.826c-23.746 0-43.343-19.597-43.343-43.343s19.597-43.343 43.343-43.343h980.127c23.746 0 42.99 19.597 42.99 43.343-0.088 23.393-19.597 42.549-43.432 42.549zM628.083 813.992c43.697 0 79.007-35.31 79.007-79.007 0-28.425-14.919-53.319-37.606-67.090v0c-12.27-7.68-26.483-11.917-41.843-11.917-15.713 0-29.926 4.59-42.196 12.27-22.246 14.212-36.811 38.753-36.811 66.737 0.441 43.697 35.663 79.007 79.448 79.007zM425.137 240.11c0-29.572-23.746-53.319-53.319-53.672h-0.353c-29.131 0-53.319 24.188-53.319 53.672v293.87c0 28.425 22.599 52.171 51.023 53.319h5.385c28.425-1.501 51.023-24.894 51.023-53.319l-0.441-293.87zM599.658 240.11c0-29.572-23.746-53.319-53.319-53.672h-0.353c-29.131 0-53.319 24.188-53.319 53.672v293.87c0 28.425 22.599 52.171 51.023 53.319h5.385c28.425-1.501 51.023-24.894 51.023-53.319l-0.441-293.87zM770.383 240.11c0-29.572-23.746-53.319-53.319-53.672h-0.353c-29.131 0-53.319 24.188-53.319 53.672v293.87c0 28.425 22.599 52.171 51.023 53.319h5.385c28.425-1.501 51.023-24.894 51.023-53.319l-0.441-293.87zM941.109 240.11c0-29.572-23.746-53.319-53.319-53.672h-0.353c-29.131 0-53.319 24.188-53.319 53.672v293.87c0 28.425 22.599 52.171 51.023 53.319h5.385c28.425-1.501 51.023-24.894 51.023-53.319l-0.441-293.87z" />
<glyph unicode="&#xe620;" glyph-name="sfz" d="M949.76 725.76h-874.24c-14.080 0-25.6-11.52-25.6-25.6v-496.64c0-14.080 11.52-25.6 25.6-25.6h874.24c14.080 0 25.6 11.52 25.6 25.6v496.64c0 14.080-11.52 25.6-25.6 25.6zM939.648 249.6c0-14.080-11.52-25.6-25.6-25.6h-800.256c-14.080 0-25.6 11.52-25.6 25.6v404.48c0 14.080 11.52 25.6 25.6 25.6h800.256c14.080 0 25.6-11.52 25.6-25.6v-404.48zM354.688 418.432c61.44 0 111.36 49.92 111.36 111.36s-50.048 111.36-111.36 111.36-111.36-49.92-111.36-111.36 49.92-111.36 111.36-111.36zM354.688 609.792c44.032 0 79.872-35.84 79.872-79.872s-35.84-79.872-79.872-79.872-79.872 35.84-79.872 79.872 35.84 79.872 79.872 79.872zM570.368 278.784c-43.008 79.232-125.696 128.384-215.68 128.384s-172.672-49.152-215.68-128.384c-4.096-7.68-1.28-17.152 6.272-21.376 2.432-1.28 4.992-1.92 7.552-1.92 5.632 0 11.008 2.944 13.824 8.192 37.504 68.992 109.568 111.872 188.032 111.872s150.528-42.752 188.032-111.744c4.096-7.68 13.696-10.496 21.376-6.272 7.68 4.096 10.496 13.568 6.272 21.248zM844.8 569.6h-230.4c-6.4 0-11.52 5.12-11.52 11.52s5.12 11.52 11.52 11.52h230.4c6.4 0 11.52-5.12 11.52-11.52s-5.12-11.52-11.52-11.52zM844.8 478.72h-230.4c-6.4 0-11.52 5.12-11.52 11.52s5.12 11.52 11.52 11.52h230.4c6.4 0 11.52-5.12 11.52-11.52s-5.12-11.52-11.52-11.52zM844.8 382.72h-230.4c-6.4 0-11.52 5.12-11.52 11.52s5.12 11.52 11.52 11.52h230.4c6.4 0 11.52-5.12 11.52-11.52s-5.12-11.52-11.52-11.52z" />
<glyph unicode="&#xe621;" glyph-name="zs2" d="M219.062 256.646c-52.165 0-94.792 42.7-94.792 94.792v404.456c0 52.165 42.7 94.792 94.792 94.792h595.124c52.165 0 94.792-42.7 94.792-94.792v-267.036c34.174-20.88 61.991-51.081 80.125-86.989v414.643c0 52.165-42.7 94.792-94.792 94.792h-755.374c-52.165 0-94.792-42.7-94.792-94.792v-525.691c0-52.165 42.7-94.792 94.792-94.792h472.154c-10.982 18.568-19.146 39.015-24.132 60.618h-367.897zM796.774 89.82h-2.962c-33.452 0.434-65.097 8.526-93.203 22.614v-133.446l93.203 93.203v0.506h2.962v-0.506l93.203-93.203v133.446c-28.105-14.089-59.751-22.181-93.203-22.614zM230.911 710.665h565.862v-66.904h-565.862v66.904zM230.911 587.117h565.862v-66.904h-565.862v66.904zM230.911 460.68h288.494v-66.904h-288.494v66.904zM796.774 440.956c-75.068 0-135.902-60.835-135.902-135.902s60.835-135.902 135.902-135.902c75.068 0 135.902 60.835 135.902 135.902s-60.835 135.902-135.902 135.902zM866.061 207.010l-72.033 53.899-65.675-46.457 25.432 76.585-54.404 40.677h67.987l26.444 79.764 28.178-79.764h72.178l-57.728-40.821 29.623-83.882z" />
<glyph unicode="&#xe622;" glyph-name="aq" d="M876.249 781.398c-70.588 5.491-135.108 20.664-196.592 47.324-62.207 26.949-117.912 63.941-168.632 112.782-102.523-97.393-223.975-148.402-363.057-160.251-1.084-19.797-2.89-38.004-3.035-56.211-1.156-139.081 14.811-276.573 38.004-413.415 3.829-22.614 4.841-48.552 16.762-66.615 71.094-107.436 157.072-200.855 267.975-269.059 43.278-26.66 43.133-26.66 86.917 0.361 110.832 68.349 195.87 162.418 268.481 268.842 3.613 5.274 5.636 12.138 6.864 18.568 24.999 129.039 40.894 259.233 46.023 390.584 1.662 41.905 0.289 83.955 0.289 127.088zM356.843 280.705l103.318 197.604c-40.605 19.074-68.71 60.329-68.71 108.158 0 65.964 53.465 119.429 119.429 119.429s119.429-53.465 119.429-119.429c0-47.83-28.105-89.084-68.71-108.158l103.318-197.604h-308.074z" />
<glyph unicode="&#xe623;" glyph-name="sbsh" d="M512 943.36c-273.536 0-495.36-221.824-495.36-495.36s221.824-495.36 495.36-495.36 495.36 221.824 495.36 495.36-221.824 495.36-495.36 495.36zM512 25.344c-67.328 0-121.856 54.528-121.856 121.856s54.528 121.856 121.856 121.856c67.328 0 121.856-54.528 121.856-121.856s-54.528-121.856-121.856-121.856zM578.816 396.416c0-36.736-30.080-66.816-66.816-66.816v0c-36.736 0-66.816 30.080-66.816 66.816l-55.296 390.272c0 36.736 85.376 66.816 121.984 66.816v0c36.736 0 121.984-30.080 121.984-66.816l-55.040-390.272z" />
<glyph unicode="&#xe624;" glyph-name="zkss" d="M18.785 940.709v-985.491h985.491v985.491h-985.491zM703.282 131.292l-191.752 191.679-191.679-191.679h-171.016l362.695 362.695 362.695-362.695h-170.944zM754.58 444.135l-243.049 242.254-242.254-242.254h-120.441l362.695 362.695 362.695-362.695h-119.646z" />
<glyph unicode="&#xe625;" glyph-name="bz-1" d="M726.402 137.361c-2.457 0-4.913 0.578-7.153 1.734l-109.098 56.355c-31.14-11.127-63.725-16.69-97.104-16.69-159.456 0-289.145 129.689-289.145 289.145s129.689 289.145 289.145 289.145c159.456 0 289.145-129.689 289.145-289.145 0-76.585-29.334-148.185-82.871-202.589l22.181-109.314c1.228-5.852-1.084-11.921-5.852-15.534-2.673-2.023-5.925-3.107-9.248-3.107zM611.163 227.962c2.457 0 4.913-0.578 7.153-1.734l86.339-44.578-17.268 85.038c-1.301 5.274 0.217 10.982 4.335 14.956 51.225 49.13 79.475 115.311 79.475 186.261 0 142.333-115.745 258.077-258.077 258.077s-258.077-115.745-258.077-258.077 115.745-258.077 258.077-258.077c31.862 0 63.002 5.78 92.552 17.123 1.734 0.65 3.613 1.012 5.491 1.012zM513.048 304.548c-76.73 0-146.017 48.335-172.461 120.296-2.962 8.092 1.156 16.979 9.248 19.941s16.979-1.156 19.941-9.248c21.964-59.823 79.547-99.994 143.344-99.994 63.725 0 121.308 40.171 143.344 99.994 2.962 8.020 11.921 12.21 19.941 9.248 8.092-2.962 12.21-11.921 9.248-19.941-26.588-71.961-95.876-120.296-172.605-120.296zM471.648 535.459c0-11.572-9.381-20.953-20.953-20.953s-20.953 9.381-20.953 20.953c0 11.572 9.381 20.953 20.953 20.953s20.953-9.381 20.953-20.953zM596.424 535.459c0-11.572-9.381-20.953-20.953-20.953s-20.953 9.381-20.953 20.953c0 11.572 9.381 20.953 20.953 20.953s20.953-9.381 20.953-20.953zM513.048-54.824c-67.843 0-133.735 13.294-195.725 39.521-59.895 25.288-113.649 61.557-159.817 107.725s-82.437 99.922-107.725 159.817c-26.227 61.991-39.521 127.81-39.521 195.725s13.294 133.735 39.521 195.725c25.288 59.895 61.557 113.649 107.725 159.817 46.24 46.168 99.994 82.437 159.889 107.725 61.991 26.227 127.81 39.521 195.725 39.521 67.843 0 133.735-13.294 195.725-39.521 59.895-25.288 113.649-61.557 159.817-107.725s82.437-99.922 107.725-159.817c26.227-61.991 39.521-127.81 39.521-195.725s-13.294-133.735-39.521-195.725c-25.288-59.895-61.557-113.649-107.725-159.817s-99.922-82.437-159.817-107.725c-62.063-26.227-127.883-39.521-195.798-39.521zM513.048 939.192c-270.865 0-491.228-220.363-491.228-491.228s220.363-491.228 491.228-491.228c270.865 0 491.228 220.363 491.228 491.228s-220.363 491.228-491.228 491.228z" />
<glyph unicode="&#xe627;" glyph-name="bz-12" d="M726.402 137.361c-2.457 0-4.913 0.578-7.153 1.734l-109.098 56.355c-31.14-11.127-63.725-16.69-97.104-16.69-159.456 0-289.145 129.689-289.145 289.145s129.689 289.145 289.145 289.145c159.456 0 289.145-129.689 289.145-289.145 0-76.585-29.334-148.185-82.871-202.589l22.181-109.314c1.228-5.852-1.084-11.921-5.852-15.534-2.673-2.023-5.925-3.107-9.248-3.107zM611.163 227.962c2.457 0 4.913-0.578 7.153-1.734l86.339-44.578-17.268 85.038c-1.301 5.274 0.217 10.982 4.335 14.956 51.225 49.13 79.475 115.311 79.475 186.261 0 142.333-115.745 258.077-258.077 258.077s-258.077-115.745-258.077-258.077 115.745-258.077 258.077-258.077c31.862 0 63.002 5.78 92.552 17.123 1.734 0.65 3.613 1.012 5.491 1.012zM513.048 304.548c-76.73 0-146.017 48.335-172.461 120.296-2.962 8.092 1.156 16.979 9.248 19.941s16.979-1.156 19.941-9.248c21.964-59.823 79.547-99.994 143.344-99.994 63.725 0 121.308 40.171 143.344 99.994 2.962 8.020 11.921 12.21 19.941 9.248 8.092-2.962 12.21-11.921 9.248-19.941-26.588-71.961-95.876-120.296-172.605-120.296zM471.648 535.459c0-11.572-9.381-20.953-20.953-20.953s-20.953 9.381-20.953 20.953c0 11.572 9.381 20.953 20.953 20.953s20.953-9.381 20.953-20.953zM596.424 535.459c0-11.572-9.381-20.953-20.953-20.953s-20.953 9.381-20.953 20.953c0 11.572 9.381 20.953 20.953 20.953s20.953-9.381 20.953-20.953zM513.048-54.824c-67.843 0-133.735 13.294-195.725 39.521-59.895 25.288-113.649 61.557-159.817 107.725s-82.437 99.922-107.725 159.817c-26.227 61.991-39.521 127.81-39.521 195.725s13.294 133.735 39.521 195.725c25.288 59.895 61.557 113.649 107.725 159.817 46.24 46.168 99.994 82.437 159.889 107.725 61.991 26.227 127.81 39.521 195.725 39.521 67.843 0 133.735-13.294 195.725-39.521 59.895-25.288 113.649-61.557 159.817-107.725s82.437-99.922 107.725-159.817c26.227-61.991 39.521-127.81 39.521-195.725s-13.294-133.735-39.521-195.725c-25.288-59.895-61.557-113.649-107.725-159.817s-99.922-82.437-159.817-107.725c-62.063-26.227-127.883-39.521-195.798-39.521zM513.048 939.192c-270.865 0-491.228-220.363-491.228-491.228s220.363-491.228 491.228-491.228c270.865 0 491.228 220.363 491.228 491.228s-220.363 491.228-491.228 491.228z" />
<glyph unicode="&#xe628;" glyph-name="bz-2" d="M513.048-54.824c-67.843 0-133.735 13.294-195.725 39.521-59.895 25.288-113.649 61.557-159.817 107.725s-82.437 99.922-107.725 159.817c-26.227 61.991-39.521 127.81-39.521 195.725s13.294 133.735 39.521 195.725c25.288 59.895 61.557 113.649 107.725 159.817 46.24 46.168 99.994 82.437 159.889 107.725 61.991 26.227 127.81 39.521 195.725 39.521 67.843 0 133.735-13.294 195.725-39.521 59.895-25.288 113.649-61.557 159.817-107.725s82.437-99.922 107.725-159.817c26.227-61.991 39.521-127.81 39.521-195.725s-13.294-133.735-39.521-195.725c-25.288-59.895-61.557-113.649-107.725-159.817s-99.922-82.437-159.817-107.725c-62.063-26.227-127.883-39.521-195.798-39.521zM513.048 939.192c-270.865 0-491.228-220.363-491.228-491.228s220.363-491.228 491.228-491.228c270.865 0 491.228 220.363 491.228 491.228s-220.363 491.228-491.228 491.228zM495.057 536.326c-1.662-5.78-2.673-11.705-3.685-17.629-0.361-2.168 0-4.624 0.434-6.792 0.434-2.095 2.095-3.035 4.046-2.095 2.384 1.084 4.985 2.312 6.719 4.191 5.708 5.852 11.488 11.705 16.545 18.063 16.618 20.953 31.14 43.35 44.795 66.253 9.176 15.389 17.99 30.995 26.949 46.457 0.65 1.084 1.301 1.951-0.361 2.89-12.499 7.081-24.926 14.161-37.715 21.458-1.517-2.962-2.962-5.708-4.407-8.453-12.644-24.276-24.421-48.913-35.041-74.129-6.864-16.473-13.439-33.018-18.279-50.214zM605.961 671.578c7.586 14.811 15.317 29.55 22.542 44.506 3.107 6.43 5.563 13.294 7.37 20.23 4.046 15.389-7.297 22.976-18.568 24.854-3.324 0.578-6.647-0.723-9.031-3.035-3.829-3.685-7.948-7.37-10.765-11.777-8.164-12.861-15.823-26.010-23.481-39.16-4.624-8.020-8.887-16.256-13.511-24.782 13.077-7.442 25.938-14.884 39.16-22.398 2.168 3.974 4.335 7.731 6.286 11.56zM597.291 629.89c-0.506-0.939-0.65-2.095-0.795-2.601 0-4.696 3.035-6.647 6.792-4.985 6.069 2.746 9.971 7.731 13.077 13.294 5.636 10.043 10.91 20.302 16.184 30.562 6.719 13.15 13.294 26.371 19.869 39.665 0.939 1.951 1.734 3.902 2.529 5.925 1.156 3.035 0.217 5.636-2.457 7.37-6.286 4.118-8.164 3.324-11.488-3.396-8.526-17.34-17.268-34.536-26.010-51.731-5.925-11.416-11.849-22.759-17.701-34.102zM711.013 679.453h-50.792l-32.874-60.473h50.069c4.263 0 7.731-3.468 7.731-7.731v-419.267h-291.529v52.092c0 1.879-3.179 13.583-12.861 13.583h-58.667v353.592c0 4.263 3.468 7.731 7.731 7.731h172.75l32.874 60.473h-239.148c-4.263 0-7.731-3.468-7.731-7.731v-417.461l100.428-99.055h329.821v516.516c-0.072 4.263-3.54 7.731-7.803 7.731zM554.664 379.76h-98.766c-17.123 0-31.14-13.944-31.14-31.14v-68.999c0-17.123 13.944-31.14 31.14-31.14h98.838c17.123 0 31.14 13.944 31.14 31.14v68.999c-0.072 17.196-14.017 31.14-31.212 31.14zM554.664 257.874h-98.766c-11.994 0-21.747 9.754-21.747 21.747v68.999c0 11.994 9.754 21.747 21.747 21.747h98.838c11.994 0 21.747-9.754 21.747-21.747v-68.999c0-11.921-9.754-21.747-21.82-21.747zM471.143 429.179c0 18.857 15.317 34.174 34.174 34.174s34.174-15.317 34.174-34.174v-37.931h18.641v37.931c0 29.117-23.698 52.815-52.815 52.815s-52.815-23.698-52.815-52.815v-37.931h18.641v37.931zM505.317 353.316c-15.317 0-27.744-12.427-27.744-27.744 0-8.959 4.335-17.34 11.56-22.542v-17.123c0-8.959 7.297-16.184 16.184-16.184s16.184 7.297 16.184 16.184v17.051c7.153 5.202 11.56 13.583 11.56 22.542 0 15.389-12.427 27.816-27.744 27.816zM514.565 309.605l-2.095-1.228-0.361-3.757v-18.785c0-3.829-3.107-6.864-6.864-6.864s-6.864 3.107-6.864 6.864v18.352l-0.506 4.263-1.951 1.156c-5.563 3.324-9.104 9.393-9.104 15.895 0 10.187 8.237 18.424 18.424 18.424s18.424-8.237 18.424-18.424c0.072-6.503-3.468-12.572-9.104-15.895z" />
<glyph unicode="&#xe629;" glyph-name="bz-3" d="M513.048-54.824c-67.843 0-133.735 13.294-195.725 39.521-59.895 25.288-113.649 61.557-159.817 107.725s-82.437 99.922-107.725 159.817c-26.227 61.991-39.521 127.81-39.521 195.725s13.294 133.735 39.521 195.725c25.288 59.895 61.557 113.649 107.725 159.817 46.24 46.168 99.994 82.437 159.889 107.725 61.991 26.227 127.81 39.521 195.725 39.521 67.843 0 133.735-13.294 195.725-39.521 59.895-25.288 113.649-61.557 159.817-107.725s82.437-99.922 107.725-159.817c26.227-61.991 39.521-127.81 39.521-195.725s-13.294-133.735-39.521-195.725c-25.288-59.895-61.557-113.649-107.725-159.817s-99.922-82.437-159.817-107.725c-62.063-26.227-127.883-39.521-195.798-39.521zM513.048 939.192c-270.865 0-491.228-220.363-491.228-491.228s220.363-491.228 491.228-491.228c270.865 0 491.228 220.363 491.228 491.228s-220.363 491.228-491.228 491.228zM554.519 667.243c-1.517-2.962-2.962-5.708-4.407-8.453-12.572-24.204-24.348-48.841-34.969-74.056-6.936-16.401-13.511-32.946-18.352-50.142-1.59-5.78-2.673-11.705-3.685-17.629-0.361-2.168 0-4.624 0.434-6.792 0.434-2.095 2.095-3.035 4.046-2.095 2.384 1.084 4.913 2.312 6.719 4.191 5.708 5.852 11.416 11.705 16.473 18.063 16.618 20.88 31.14 43.278 44.795 66.181 9.176 15.389 17.99 30.923 26.949 46.385 0.65 1.084 1.228 1.951-0.361 2.89-12.427 7.008-24.854 14.161-37.642 21.458zM601.193 658.139c2.168 3.974 4.335 7.731 6.286 11.56 7.586 14.811 15.317 29.478 22.542 44.434 3.107 6.43 5.563 13.294 7.37 20.23 4.046 15.389-7.297 22.976-18.568 24.854-3.324 0.578-6.647-0.723-9.031-3.035-3.829-3.685-7.948-7.37-10.765-11.777-8.164-12.861-15.823-26.010-23.409-39.16-4.624-8.020-8.887-16.256-13.511-24.71 13.005-7.442 25.938-14.811 39.087-22.398zM598.014 625.555c0-4.696 2.962-6.647 6.719-4.985 6.069 2.673 9.971 7.731 13.077 13.294 5.563 10.043 10.91 20.23 16.112 30.49 6.719 13.15 13.294 26.371 19.869 39.593 0.939 1.951 1.734 3.902 2.529 5.925 1.156 2.962 0.217 5.636-2.457 7.297-6.286 4.046-8.164 3.324-11.488-3.396-8.526-17.268-17.268-34.463-26.010-51.659-5.78-11.343-11.705-22.687-17.557-34.030-0.506-0.939-0.65-2.095-0.795-2.529zM440.725 507.715h-80.92c-1.156 0-2.023 0.939-2.023 2.023v61.557c0 1.156 0.939 2.023 2.023 2.023h80.92c1.156 0 2.023-0.939 2.023-2.023v-61.557c0.072-1.084-0.867-2.023-2.023-2.023zM712.386 677.647h-50.72l-32.802-60.401h49.997c4.263 0 7.731-3.468 7.731-7.731v-418.689h-265.23v79.331c0 1.879-3.179 13.583-12.788 13.583h-84.605v325.775c0 4.263 3.468 7.731 7.731 7.731h172.533l32.802 60.401h-238.859c-4.263 0-7.731-3.468-7.731-7.731v-389.572l126.293-126.293h303.45v515.865c-0.072 4.191-3.54 7.731-7.803 7.731zM638.257 446.663h-270.938c-4.552 0-8.164 3.685-8.164 8.164 0 4.552 3.685 8.164 8.164 8.164h270.938c4.552 0 8.164-3.685 8.164-8.164s-3.685-8.164-8.164-8.164zM638.257 389.297h-270.938c-4.552 0-8.164 3.685-8.164 8.164 0 4.552 3.685 8.164 8.164 8.164h270.938c4.552 0 8.164-3.685 8.164-8.164s-3.685-8.164-8.164-8.164zM638.257 331.93h-270.938c-4.552 0-8.164 3.685-8.164 8.164 0 4.552 3.685 8.164 8.164 8.164h270.938c4.552 0 8.164-3.685 8.164-8.164s-3.685-8.164-8.164-8.164zM638.257 258.163h-160.756c-4.552 0-8.164 3.685-8.164 8.164 0 4.552 3.685 8.164 8.164 8.164h160.756c4.552 0 8.164-3.685 8.164-8.164 0-4.552-3.685-8.164-8.164-8.164z" />
<glyph unicode="&#xe62a;" glyph-name="bz-4" d="M513.048-54.824c-67.843 0-133.735 13.294-195.725 39.521-59.895 25.288-113.649 61.557-159.817 107.725s-82.437 99.922-107.725 159.817c-26.227 61.991-39.521 127.81-39.521 195.725s13.294 133.735 39.521 195.725c25.288 59.895 61.557 113.649 107.725 159.817 46.24 46.168 99.994 82.437 159.889 107.725 61.991 26.227 127.81 39.521 195.725 39.521 67.843 0 133.735-13.294 195.725-39.521 59.895-25.288 113.649-61.557 159.817-107.725s82.437-99.922 107.725-159.817c26.227-61.991 39.521-127.81 39.521-195.725s-13.294-133.735-39.521-195.725c-25.288-59.895-61.557-113.649-107.725-159.817s-99.922-82.437-159.817-107.725c-62.063-26.227-127.883-39.521-195.798-39.521zM513.048 939.192c-270.865 0-491.228-220.363-491.228-491.228s220.363-491.228 491.228-491.228c270.865 0 491.228 220.363 491.228 491.228s-220.363 491.228-491.228 491.228zM564.706 271.096h-104.329c-7.153 0-13.005 5.852-13.005 13.005s5.852 13.005 13.005 13.005h104.329c7.153 0 13.005-5.852 13.005-13.005s-5.852-13.005-13.005-13.005zM564.706 231.719h-104.329c-7.153 0-13.005 5.852-13.005 13.005s5.852 13.005 13.005 13.005h104.329c7.153 0 13.005-5.852 13.005-13.005 0-7.225-5.852-13.005-13.005-13.005zM564.706 192.199h-104.329c-7.153 0-13.005 5.852-13.005 13.005s5.852 13.005 13.005 13.005h104.329c7.153 0 13.005-5.852 13.005-13.005 0-7.225-5.852-13.005-13.005-13.005zM512.542 152.244c20.086 0 36.775 12.138 39.449 27.961h-78.897c2.673-15.823 19.291-27.961 39.449-27.961zM592.667 314.663h-160.323l-1.156 13.15c-2.095 23.626-4.191 40.46-13.077 57.728-6.503 12.572-17.123 23.12-28.394 34.319-1.879 1.806-3.685 3.613-5.491 5.491-33.307 33.452-52.381 79.692-52.381 126.871 0 99.199 80.703 179.903 179.903 179.903h1.734c99.199 0 179.903-80.703 179.903-179.903 0-47.179-19.074-93.419-52.381-126.871-1.806-1.806-3.685-3.613-5.491-5.491-11.271-11.199-21.964-21.747-28.394-34.319-8.887-17.268-10.91-34.102-13.077-57.728l-1.373-13.15zM458.716 343.563h107.653c1.951 17.918 5.202 36.27 14.884 55.199 8.598 16.69 21.386 29.406 33.813 41.688 1.806 1.806 3.613 3.54 5.347 5.347 27.961 28.105 44 66.904 44 106.497 0 83.232-67.698 150.93-150.93 150.93h-1.734c-83.232 0-150.93-67.698-150.93-150.93 0-39.593 16.040-78.391 44-106.497 1.734-1.806 3.54-3.54 5.347-5.347 12.427-12.283 25.215-24.926 33.813-41.688 9.537-18.93 12.788-37.353 14.739-55.199zM543.465 560.457l-25.649-71.455c-1.662-4.769-3.324-10.332-4.913-16.834h-0.506c-0.795 5.202-2.24 10.765-4.335 16.69l-25.504 71.6-36.703 91.324v-209.814h22.759v66.976c0 9.971-0.361 19.941-1.012 29.912h0.723c1.806-8.742 3.035-14.017 3.757-15.967l29.623-80.92h-0.072l10.115-29.695 10.115 29.695h-0.072l29.189 81.643c0.939 2.529 2.168 7.586 3.685 15.245h0.578c-0.65-10.043-1.012-18.352-1.012-24.999v-71.889h24.926v209.886l-35.692-91.396z" />
<glyph unicode="&#xe62b;" glyph-name="bz-5" d="M513.048-54.824c-67.843 0-133.735 13.294-195.725 39.521-59.895 25.288-113.649 61.557-159.817 107.725s-82.437 99.922-107.725 159.817c-26.227 61.991-39.521 127.81-39.521 195.725s13.294 133.735 39.521 195.725c25.288 59.895 61.557 113.649 107.725 159.817 46.24 46.168 99.994 82.437 159.889 107.725 61.991 26.227 127.81 39.521 195.725 39.521 67.843 0 133.735-13.294 195.725-39.521 59.895-25.288 113.649-61.557 159.817-107.725s82.437-99.922 107.725-159.817c26.227-61.991 39.521-127.81 39.521-195.725s-13.294-133.735-39.521-195.725c-25.288-59.895-61.557-113.649-107.725-159.817s-99.922-82.437-159.817-107.725c-62.063-26.227-127.883-39.521-195.798-39.521zM513.048 939.192c-270.865 0-491.228-220.363-491.228-491.228s220.363-491.228 491.228-491.228c270.865 0 491.228 220.363 491.228 491.228s-220.363 491.228-491.228 491.228zM679.006 227.384c-12.716 0-24.421 0-37.064 0 0 38.871 0 77.524 0 117.262 11.705 0 23.987 0 37.064 0 0-38.654 0-77.38 0-117.262zM641.508 425.277c13.077 0 24.782 0 37.353 0 0-12.716 0-25.071 0-38.365-12.21 0-24.421 0-37.353 0 0 12.788 0 25.071 0 38.365zM678.789 474.118c-1.879 0.578-13.655 4.696-13.511 18.641 0 0.434 0 0.795 0 1.084 0.506 35.836 0 71.744 0.361 107.653 0.072 7.081-2.168 11.994-7.081 16.834-25.938 25.577-51.731 51.298-77.308 77.235-4.335 4.407-8.67 6.43-15.1 6.43-94.142-0.217-188.284-0.145-282.425-0.145-3.107 0-6.141-0.289-9.32-0.434 0-174.267 0-347.667 0-522.079 4.985 0 8.815 0 12.644 0 120.296 0 240.52-0.072 360.817 0.072 2.457 0 4.913 0.072 7.37 0.217 0.217 0 0.361 0 0.578 0 81.787 0 148.113 66.326 148.113 148.113 0.072 73.984-54.188 135.324-125.137 146.379zM568.752 657.417c17.196-17.268 35.547-35.619 53.537-53.61-16.762 0-34.752 0-53.537 0 0 18.713 0 37.209 0 53.61zM556.036 212.79c-83.593 0-165.814 0-248.685 0 0 151.653 0 303.306 0 455.609 75.646 0 151.219 0 227.732 0 0-32.007 0-63.797 0-96.671 32.946 0 65.025 0 97.899 0 0.217-4.191 0.578-7.297 0.578-10.332 0.072-25.071-0.145-50.142 0.145-75.14-0.506-9.176-6.358-12.644-10.26-13.944-1.084-0.217-2.168-0.506-3.251-0.723-0.072 0-0.145 0-0.145 0h0.072c-64.592-15.967-112.421-74.273-112.421-143.778 0-46.168 21.169-87.423 54.26-114.589h-6.286c0.145-0.217 0.217-0.289 0.361-0.434zM655.814 196.028c-72.684 0-131.64 58.956-131.64 131.64s58.956 131.64 131.64 131.64 131.712-58.884 131.712-131.567c0-72.756-58.956-131.712-131.712-131.712zM568.752 519.636h-210.464c-4.696 0-8.453 3.757-8.453 8.453s3.757 8.453 8.453 8.453h210.464c4.696 0 8.453-3.757 8.453-8.453s-3.757-8.453-8.453-8.453zM568.752 459.452h-210.464c-4.696 0-8.453 3.757-8.453 8.453s3.757 8.453 8.453 8.453h210.464c4.696 0 8.453-3.757 8.453-8.453 0-4.624-3.757-8.453-8.453-8.453zM539.202 398.978h-180.914c-4.696 0-8.453 3.757-8.453 8.453s3.757 8.453 8.453 8.453h180.842c4.696 0 8.453-3.757 8.453-8.453 0.072-4.696-3.757-8.453-8.381-8.453zM514.565 336.988h-156.277c-4.696 0-8.453 3.757-8.453 8.453s3.757 8.453 8.453 8.453h156.277c4.696 0 8.453-3.757 8.453-8.453 0-4.624-3.757-8.453-8.453-8.453z" />
<glyph unicode="&#xe62c;" glyph-name="bz-6" d="M513.048-54.824c-67.843 0-133.735 13.294-195.725 39.521-59.895 25.288-113.649 61.557-159.817 107.725s-82.437 99.922-107.725 159.817c-26.227 61.991-39.521 127.81-39.521 195.725s13.294 133.735 39.521 195.725c25.288 59.895 61.557 113.649 107.725 159.817 46.24 46.168 99.994 82.437 159.889 107.725 61.991 26.227 127.81 39.521 195.725 39.521 67.843 0 133.735-13.294 195.725-39.521 59.895-25.288 113.649-61.557 159.817-107.725s82.437-99.922 107.725-159.817c26.227-61.991 39.521-127.81 39.521-195.725s-13.294-133.735-39.521-195.725c-25.288-59.895-61.557-113.649-107.725-159.817s-99.922-82.437-159.817-107.725c-62.063-26.227-127.883-39.521-195.798-39.521zM513.048 939.192c-270.865 0-491.228-220.363-491.228-491.228s220.363-491.228 491.228-491.228c270.865 0 491.228 220.363 491.228 491.228s-220.363 491.228-491.228 491.228zM651.551 338.505c0.578-0.072 1.156-0.145 1.734-0.217 0.072 2.457 0.145 4.841 0.145 7.297-0.506-0.072-1.012-0.145-1.59-0.217-6.43-0.578-11.994 2.168-12.355 6.214-0.361 3.974 4.552 7.731 11.054 8.309 0.65 0.072 1.301 0.072 1.951 0.072-0.289 2.457-0.65 4.841-1.084 7.297-0.506-0.217-1.084-0.361-1.662-0.506-6.286-1.59-12.138 0.289-13.15 4.191s3.324 8.309 9.609 9.898c0.65 0.145 1.373 0.289 2.023 0.361-0.65 2.384-1.445 4.696-2.24 7.081-0.506-0.289-1.084-0.578-1.662-0.795-5.925-2.529-12.066-1.59-13.655 2.095s1.951 8.742 7.948 11.271c0.65 0.289 1.301 0.506 1.951 0.723-1.012 2.24-2.168 4.407-3.324 6.647-0.506-0.361-1.012-0.723-1.517-1.084-5.491-3.468-11.632-3.468-13.8-0.072s0.578 8.959 6.069 12.355c0.578 0.361 1.228 0.723 1.806 1.012-1.373 2.023-2.818 4.046-4.335 5.997-0.434-0.434-0.867-0.867-1.373-1.301-4.841-4.263-10.982-5.274-13.583-2.24-2.673 3.035-0.795 8.959 4.046 13.222 0.506 0.434 1.084 0.867 1.662 1.301-1.734 1.806-3.468 3.54-5.202 5.274-0.361-0.506-0.723-1.012-1.084-1.445-4.118-4.985-10.043-6.936-13.077-4.335-3.107 2.601-2.24 8.67 1.951 13.655 0.434 0.506 0.867 1.012 1.373 1.445-1.951 1.517-3.974 2.962-5.997 4.335-0.217-0.506-0.506-1.012-0.795-1.517-3.324-5.563-8.815-8.381-12.283-6.286s-3.54 8.237-0.217 13.8c0.289 0.506 0.65 1.012 1.012 1.517-2.168 1.156-4.335 2.24-6.503 3.324-0.145-0.506-0.289-1.012-0.506-1.445-2.384-5.997-7.37-9.682-11.127-8.164s-4.769 7.586-2.384 13.583c0.217 0.506 0.434 1.012 0.65 1.445-2.312 0.795-4.552 1.517-6.864 2.168-0.072-0.434-0.145-0.867-0.217-1.301-1.445-6.286-5.78-10.693-9.682-9.826s-5.925 6.719-4.48 13.077c0.072 0.434 0.217 0.939 0.361 1.373-2.384 0.434-4.696 0.795-7.081 1.084 0-0.361 0-0.723-0.072-1.084-0.434-6.43-4.046-11.488-8.020-11.199s-6.936 5.708-6.43 12.21c0 0.361 0.072 0.723 0.145 1.156-2.384 0.072-4.696 0-7.081-0.072 0-0.289 0.072-0.506 0.072-0.795 0.578-6.43-2.168-11.994-6.214-12.355-3.974-0.361-7.731 4.552-8.309 11.054 0 0.289 0 0.578-0.072 0.867-2.312-0.289-4.624-0.723-6.936-1.156 0.072-0.145 0.072-0.289 0.145-0.506 1.59-6.286-0.289-12.138-4.191-13.15s-8.309 3.324-9.898 9.609c-0.072 0.145-0.072 0.361-0.145 0.506-2.24-0.65-4.407-1.445-6.575-2.24 0-0.072 0.072-0.072 0.072-0.145 2.529-5.925 1.59-12.066-2.095-13.655s-8.742 1.951-11.271 7.948c0 0.072 0 0.072-0.072 0.145-2.023-1.012-4.118-2.095-6.141-3.179 3.324-5.419 3.324-11.488 0-13.655-3.396-2.095-8.815 0.506-12.283 5.925-1.879-1.301-3.685-2.673-5.491-4.046 3.974-4.769 4.841-10.621 1.879-13.222s-8.598-0.939-12.861 3.685c-1.662-1.59-3.251-3.179-4.769-4.841 4.48-4.118 6.141-9.609 3.685-12.499-2.457-2.962-8.164-2.312-13.005 1.445-1.373-1.806-2.673-3.685-3.902-5.563 4.913-3.324 7.297-8.381 5.347-11.632s-7.514-3.54-12.788-0.795c-1.084-2.023-2.095-4.046-3.035-6.069 5.202-2.601 8.164-7.081 6.792-10.476-1.373-3.468-6.647-4.624-12.21-2.89-0.723-2.168-1.445-4.263-2.023-6.503 5.347-1.806 8.887-5.636 8.092-9.248-0.795-3.54-5.708-5.563-11.343-4.769-0.434-2.24-0.723-4.48-1.012-6.719 5.491-0.939 9.465-4.191 9.176-7.803-0.217-3.613-4.696-6.286-10.26-6.503-0.072-2.24-0.072-4.552 0-6.792 5.491-0.145 9.826-2.746 10.115-6.286s-3.54-6.864-8.959-8.020c0.289-2.24 0.65-4.48 1.084-6.719 5.347 0.65 9.971-1.228 10.838-4.624 0.867-3.468-2.384-7.297-7.514-9.248 0.65-2.168 1.373-4.335 2.095-6.503 5.13 1.445 9.971 0.289 11.343-2.89 1.373-3.251-1.228-7.586-5.925-10.26 0.939-2.023 2.023-4.046 3.107-6.069 4.841 2.168 9.682 1.806 11.56-1.156s0-7.659-4.191-11.054c1.301-1.879 2.601-3.757 3.974-5.563 4.407 2.89 9.32 3.324 11.632 0.723 2.312-2.673 1.156-7.586-2.457-11.632 1.517-1.662 3.107-3.324 4.769-4.841 3.902 3.613 8.742 4.769 11.416 2.529 2.746-2.312 2.384-7.37-0.65-11.921 1.806-1.373 3.613-2.746 5.491-4.046 3.324 4.263 7.948 6.214 10.982 4.407 3.107-1.879 3.468-7.008 1.156-11.994 1.951-1.084 3.974-2.168 5.997-3.179 2.601 4.769 6.864 7.514 10.187 6.214 3.396-1.373 4.552-6.43 2.962-11.849 2.095-0.795 4.263-1.517 6.43-2.168 1.806 5.274 5.636 8.67 9.176 7.875 3.613-0.795 5.563-5.78 4.769-11.488 2.24-0.434 4.48-0.867 6.719-1.156 0.939 5.563 4.191 9.682 7.875 9.465 3.757-0.289 6.503-4.985 6.503-10.838 2.24-0.072 4.552-0.145 6.792-0.145-0.072 5.78 2.601 10.549 6.286 10.838 3.757 0.361 7.297-4.046 8.164-10.043 2.24 0.217 4.48 0.578 6.719 0.939-1.084 5.852 0.795 11.127 4.407 11.994 3.757 0.939 8.020-3.035 9.754-8.959 2.168 0.578 4.335 1.228 6.503 1.951-2.168 5.708-1.156 11.343 2.384 12.861 3.613 1.517 8.526-1.879 11.127-7.586 2.095 0.939 4.118 1.951 6.141 2.962-3.179 5.347-3.107 11.271 0.217 13.366 3.396 2.095 8.959-0.578 12.355-5.997 1.951 1.301 3.829 2.601 5.636 3.902-4.191 4.841-5.13 10.838-2.095 13.511s8.959 0.795 13.222-4.046c0.072-0.072 0.145-0.145 0.217-0.289 1.734 1.59 3.396 3.179 4.985 4.769-0.072 0.072-0.145 0.072-0.145 0.145-4.985 4.118-6.936 10.043-4.335 13.077 2.601 3.107 8.67 2.24 13.655-1.951 0.145-0.145 0.361-0.289 0.506-0.434 1.445 1.806 2.89 3.685 4.263 5.563-0.145 0.072-0.289 0.145-0.506 0.289-5.563 3.324-8.381 8.815-6.358 12.283 2.095 3.468 8.237 3.54 13.8 0.217 0.289-0.145 0.578-0.361 0.795-0.506 1.156 2.023 2.312 4.118 3.324 6.286-0.289 0.072-0.506 0.217-0.795 0.289-5.997 2.384-9.682 7.37-8.164 11.127s7.586 4.769 13.583 2.384c0.361-0.145 0.795-0.361 1.156-0.506 0.867 2.24 1.59 4.48 2.312 6.792-0.361 0.072-0.723 0.145-1.084 0.217-6.286 1.445-10.693 5.78-9.826 9.682s6.719 5.925 13.077 4.48c0.506-0.145 1.012-0.289 1.445-0.434 0.506 2.384 0.867 4.769 1.228 7.153-0.434 0-0.867 0-1.373 0.072-6.43 0.434-11.488 4.046-11.199 8.020 0 3.902 5.419 6.792 11.921 6.358zM574.388 421.52c8.598 5.419 22.036-5.78 32.007-21.675s14.161-32.874 5.563-38.293c-7.153-4.48-24.999 5.274-34.391 20.23-9.32 14.956-10.332 35.258-3.179 39.738zM513.192 449.192c18.713 0.723 35.547-4.118 35.981-14.306 0.289-8.453-17.051-19.002-34.68-19.652s-35.764 8.598-36.053 17.051c-0.361 10.115 16.040 16.184 34.752 16.907zM423.891 393.126c8.742 16.545 21.386 28.756 30.345 23.987 7.442-3.974 7.948-24.276-0.361-39.882-8.237-15.606-25.36-26.66-32.802-22.687-8.887 4.769-5.925 22.036 2.818 38.582zM459.799 266.038c-8.598-5.419-22.036 5.78-32.007 21.675s-14.161 32.874-5.563 38.293c7.153 4.48 24.999-5.274 34.391-20.23 9.32-14.884 10.332-35.186 3.179-39.738zM520.995 238.439c-18.713-0.723-35.547 4.191-35.981 14.306-0.289 8.453 17.051 19.002 34.68 19.652s35.764-8.598 36.053-17.051c0.361-10.187-16.040-16.256-34.752-16.907zM551.051 289.664c-29.839-18.713-69.36-9.682-88.073 20.158s-9.682 69.36 20.158 88.073c29.839 18.713 69.36 9.682 88.073-20.158s9.682-69.36-20.158-88.073zM610.296 294.433c-8.742-16.545-21.386-28.756-30.345-23.987-7.442 3.974-7.948 24.276 0.289 39.882s25.36 26.66 32.802 22.687c8.959-4.696 5.997-21.964-2.746-38.582zM567.596 375.497c-17.485 27.816-54.332 36.27-82.221 18.785-27.816-17.485-36.27-54.332-18.785-82.221 17.485-27.816 54.332-36.27 82.221-18.785 27.816 17.485 36.27 54.332 18.785 82.221zM542.526 303.319c-22.398-14.017-51.876-7.297-65.892 15.1s-7.297 51.876 15.1 65.892c22.398 14.017 51.876 7.297 65.892-15.1s7.225-51.876-15.1-65.892zM447.156 598.966c0 58.884-47.902 106.786-106.786 106.786s-106.786-47.902-106.786-106.786c0-32.946 14.956-62.424 38.509-82.004-29.695-10.693-56.211-28.467-77.669-52.598-35.258-39.738-54.693-93.853-54.693-152.448h36.414c0 104.474 69.071 180.264 164.224 180.264 0 0 0 0 0 0s0 0 0 0c22.903 0 45.518-4.407 66.615-12.788 11.488 8.887 24.132 16.473 37.642 22.398-11.343 6.214-23.192 11.416-35.475 15.534 23.192 19.652 38.004 48.986 38.004 81.643zM340.37 669.338c38.798 0 70.372-31.573 70.372-70.372s-31.573-70.372-70.372-70.372c-38.798 0-70.372 31.573-70.372 70.372s31.573 70.372 70.372 70.372zM833.115 464.437c-21.458 24.132-47.974 41.905-77.669 52.598 23.481 19.58 38.509 49.058 38.509 82.004 0 58.884-47.902 106.786-106.786 106.786s-106.786-47.902-106.786-106.786c0-32.729 14.811-61.991 38.004-81.643-11.199-3.757-22.036-8.381-32.513-13.944 14.017-5.852 27.166-13.366 39.087-22.325 19.797 7.225 40.821 11.127 62.135 11.127 0 0 0 0 0 0s0 0 0 0c95.153 0 164.224-75.79 164.224-180.264h36.414c0.145 58.595-19.291 112.71-54.621 152.448zM687.243 669.338c38.798 0 70.372-31.573 70.372-70.372s-31.573-70.372-70.372-70.372-70.372 31.573-70.372 70.372c0 38.798 31.573 70.372 70.372 70.372z" />
<glyph unicode="&#xe62d;" glyph-name="bz-7" d="M513.048-54.824c-67.843 0-133.735 13.294-195.725 39.521-59.895 25.288-113.649 61.557-159.817 107.725s-82.437 99.922-107.725 159.817c-26.227 61.991-39.521 127.81-39.521 195.725s13.294 133.735 39.521 195.725c25.288 59.895 61.557 113.649 107.725 159.817 46.24 46.168 99.994 82.437 159.889 107.725 61.991 26.227 127.81 39.521 195.725 39.521 67.843 0 133.735-13.294 195.725-39.521 59.895-25.288 113.649-61.557 159.817-107.725s82.437-99.922 107.725-159.817c26.227-61.991 39.521-127.81 39.521-195.725s-13.294-133.735-39.521-195.725c-25.288-59.895-61.557-113.649-107.725-159.817s-99.922-82.437-159.817-107.725c-62.063-26.227-127.883-39.521-195.798-39.521zM513.048 939.192c-270.865 0-491.228-220.363-491.228-491.228s220.363-491.228 491.228-491.228c270.865 0 491.228 220.363 491.228 491.228s-220.363 491.228-491.228 491.228zM587.971 475.202c34.247 22.831 56.861 61.846 56.861 106.063 0 70.227-57.15 127.377-127.377 127.377s-127.449-57.15-127.449-127.377c0-44.217 22.614-83.16 56.861-106.063-105.774-31.718-183.371-132.796-183.371-252.225h34.247c0 125.932 98.549 228.31 219.64 228.31 44.578 0 86.050-13.944 120.73-37.715 5.202 0.65 10.476 1.156 15.823 1.156 15.967 0 31.212-3.179 45.229-8.742-30.273 32.151-68.421 56.355-111.193 69.216zM424.469 581.265c0 51.225 41.688 92.914 92.914 92.914s92.914-41.688 92.914-92.914c0-51.225-41.688-92.914-92.914-92.914s-92.914 41.616-92.914 92.914zM653.935 394.427c-56.716 0-102.812-46.168-102.812-102.812 0-56.716 46.168-102.812 102.812-102.812s102.812 46.168 102.812 102.812c0.072 56.716-46.096 102.812-102.812 102.812zM736.806 301.296h-73.117v73.189c38.22-4.48 68.71-34.897 73.117-73.189zM644.254 374.486v-73.189h-73.189c4.48 38.293 34.897 68.71 73.189 73.189zM571.064 281.933h73.189v-73.189c-38.293 4.48-68.71 34.897-73.189 73.189zM663.689 208.744v73.189h73.189c-4.48-38.293-34.969-68.71-73.189-73.189z" />
<glyph unicode="&#xe62e;" glyph-name="bz-8" d="M513.048-54.824c-67.843 0-133.735 13.294-195.725 39.521-59.895 25.288-113.649 61.557-159.817 107.725s-82.437 99.922-107.725 159.817c-26.227 61.991-39.521 127.81-39.521 195.725s13.294 133.735 39.521 195.725c25.288 59.895 61.557 113.649 107.725 159.817 46.24 46.168 99.994 82.437 159.889 107.725 61.991 26.227 127.81 39.521 195.725 39.521 67.843 0 133.735-13.294 195.725-39.521 59.895-25.288 113.649-61.557 159.817-107.725s82.437-99.922 107.725-159.817c26.227-61.991 39.521-127.81 39.521-195.725s-13.294-133.735-39.521-195.725c-25.288-59.895-61.557-113.649-107.725-159.817s-99.922-82.437-159.817-107.725c-62.063-26.227-127.883-39.521-195.798-39.521zM513.048 939.192c-270.865 0-491.228-220.363-491.228-491.228s220.363-491.228 491.228-491.228c270.865 0 491.228 220.363 491.228 491.228s-220.363 491.228-491.228 491.228zM646.782 266.544h-59.101c-2.095 0-3.902 1.734-3.902 3.902v14.378c0 2.168-1.734 3.902-3.902 3.902h-82.726c-2.095 0-3.902-1.734-3.902-3.902v-14.378c0-2.095-1.734-3.902-3.902-3.902h-44.434c-2.168 0-3.902-1.734-3.902-3.902v-16.618c0-2.095 1.734-3.902 3.902-3.902h201.794c2.095 0 3.902 1.734 3.902 3.902v16.618c0 2.168-1.734 3.902-3.829 3.902v0zM746.054 655.755h-421.868c-14.667 0-26.588-11.921-26.588-26.66v-69.432c0-9.176-0.65-10.476 5.491-10.476h10.549c5.13 0 4.118 1.301 4.118 10.621v69.288c0 3.54 2.962 6.503 6.503 6.503h421.868c3.54 0 6.503-2.962 6.503-6.503v-259.883h-300.849c0 0-10.621 0-10.621-13.655v-32.513c0-13.655 10.91-13.655 10.91-13.655h293.985c14.667 0 26.66 11.921 26.66 26.588v293.191c0 14.667-11.921 26.588-26.66 26.588v0zM535.156 332.292c-6.647 0-11.994 5.347-11.994 11.994s5.347 11.994 11.994 11.994c6.647 0 11.994-5.347 11.994-11.994 0-6.575-5.419-11.994-11.994-11.994v0zM400.121 525.416h-152.664c-9.465 0-17.196-7.731-17.196-17.196v-250.852c0-9.465 7.731-17.196 17.196-17.196h152.592c9.465 0 17.196 7.731 17.196 17.196v250.852c0.072 9.537-7.659 17.196-17.123 17.196v0zM304.967 507.931h37.642c1.806 0 3.251-1.445 3.251-3.251s-1.445-3.251-3.251-3.251h-37.642c-1.806 0-3.251 1.445-3.251 3.251s1.445 3.251 3.251 3.251v0zM323.536 252.311c-4.913 0-8.887 3.974-8.887 8.887s3.974 8.887 8.887 8.887c4.913 0 8.887-3.974 8.887-8.887 0.072-4.913-3.974-8.887-8.887-8.887v0zM402.505 278.393c0-2.312-1.806-4.191-4.046-4.191h-149.341c-2.24 0-4.046 1.879-4.046 4.191v208.514c0 2.312 1.806 4.191 4.046 4.191h149.269c2.24 0 4.046-1.879 4.046-4.191v-208.514zM580.168 605.324c-55.271 0-100.066-44.795-100.066-100.066s44.795-100.066 100.066-100.066 100.066 44.795 100.066 100.066c0 55.271-44.795 100.066-100.066 100.066zM621.712 512.050c0.145-1.59 0.145-3.179 0.217-4.769h-37.498v30.056c9.393 0.217 19.363 1.517 29.839 4.407 3.757-8.815 6.575-18.785 7.442-29.695zM546.933 542.395c8.381-2.457 17.918-4.263 28.394-4.841v-30.201h-36.053c0 1.806 0.072 3.54 0.217 5.347 0.867 10.838 3.685 20.808 7.442 29.695zM575.327 548.464c-8.598 0.434-16.473 1.879-23.554 3.829 7.586 13.728 16.979 24.204 23.554 30.49v-34.319zM575.327 498.25v-28.105c-9.898-0.506-19.074-2.24-27.166-4.48-4.769 10.91-7.659 21.82-8.526 32.657h35.692zM575.327 458.874v-34.391c-9.104 10.332-16.473 20.591-22.109 30.923 6.647 1.734 14.089 3.035 22.109 3.468zM584.431 459.018c7.659-0.217 15.751-1.228 24.132-3.324-5.997-11.199-14.089-22.398-24.132-33.596v36.92zM584.431 470.217v28.033h37.281c-0.795-10.693-3.54-21.458-8.164-32.224-10.187 2.746-19.941 3.974-29.117 4.191zM584.431 548.319v35.186c6.503-6.069 16.69-16.907 24.854-31.573-8.742-2.24-17.051-3.324-24.854-3.613zM540.864 555.905c-8.453 3.251-15.1 7.008-19.58 9.826 11.705 11.488 26.805 19.508 43.567 22.614-7.297-7.37-16.545-18.352-23.987-32.44zM536.24 546.007c-3.974-9.682-6.936-20.447-7.875-32.368-0.145-2.095-0.217-4.191-0.289-6.286h-32.224c0.434 18.857 7.081 36.125 17.918 49.997 4.841-3.179 12.499-7.514 22.47-11.343zM528.365 498.25c0.867-12.066 3.902-24.132 9.104-36.125-9.465-3.54-16.979-7.659-22.109-10.765-10.765 12.933-17.774 29.189-19.219 46.963h32.224zM542.237 452.010c5.13-9.754 11.705-19.435 19.652-29.117-14.739 3.251-28.033 10.332-38.726 20.158 4.696 2.746 11.127 6.069 19.074 8.959zM619.544 452.371c6.069-2.168 12.283-4.913 18.641-8.309-10.476-9.971-23.554-17.196-38.004-20.736 7.875 9.609 14.306 19.291 19.363 29.045zM624.313 462.631c4.913 11.849 7.875 23.77 8.67 35.619h31.357c-1.445-17.196-8.020-32.946-18.207-45.662-7.442 4.118-14.739 7.442-21.82 10.043zM633.127 507.353c-0.072 1.879-0.072 3.757-0.289 5.636-0.939 11.849-3.902 22.687-7.875 32.368 7.37 2.746 14.956 6.286 22.687 10.693 10.26-13.583 16.473-30.417 16.907-48.697h-31.429zM640.208 564.648c-6.792-3.829-13.439-6.864-19.941-9.248-7.659 14.45-17.196 25.577-24.493 32.874 17.196-3.251 32.585-11.632 44.434-23.626z" />
<glyph unicode="&#xe62f;" glyph-name="bz-9" d="M513.048-54.824c-67.843 0-133.735 13.294-195.725 39.521-59.895 25.288-113.649 61.557-159.817 107.725s-82.437 99.922-107.725 159.817c-26.227 61.991-39.521 127.81-39.521 195.725s13.294 133.735 39.521 195.725c25.288 59.895 61.557 113.649 107.725 159.817 46.24 46.168 99.994 82.437 159.889 107.725 61.991 26.227 127.81 39.521 195.725 39.521 67.843 0 133.735-13.294 195.725-39.521 59.895-25.288 113.649-61.557 159.817-107.725s82.437-99.922 107.725-159.817c26.227-61.991 39.521-127.81 39.521-195.725s-13.294-133.735-39.521-195.725c-25.288-59.895-61.557-113.649-107.725-159.817s-99.922-82.437-159.817-107.725c-62.063-26.227-127.883-39.521-195.798-39.521zM513.048 939.192c-270.865 0-491.228-220.363-491.228-491.228s220.363-491.228 491.228-491.228c270.865 0 491.228 220.363 491.228 491.228s-220.363 491.228-491.228 491.228zM575.11 517.396h-211.042c-4.696 0-8.453 3.757-8.453 8.453s3.757 8.453 8.453 8.453h211.042c4.696 0 8.453-3.757 8.453-8.453s-3.757-8.453-8.453-8.453zM575.11 457.14h-211.042c-4.696 0-8.453 3.757-8.453 8.453s3.757 8.453 8.453 8.453h211.042c4.696 0 8.453-3.757 8.453-8.453s-3.757-8.453-8.453-8.453zM685.509 471.734c-1.951 0.578-13.728 4.696-13.583 18.641 0 0.434 0 0.795 0 1.084 0.506 35.981 0 71.961 0.361 107.942 0.072 7.081-2.168 11.994-7.153 16.907-26.010 25.649-51.876 51.442-77.524 77.452-4.407 4.407-8.742 6.43-15.1 6.43-94.431-0.217-188.789-0.145-283.22-0.145-3.107 0-6.214-0.289-9.32-0.434 0-174.773 0-348.607 0-523.452 4.985 0 8.815 0 12.716 0 120.585 0 241.171-0.072 361.756 0.072 2.457 0 4.913 0.072 7.442 0.217 0.217 0 0.361 0 0.578 0 82.004 0 148.546 66.47 148.546 148.546-0.072 74.201-54.477 135.686-125.498 146.74zM575.11 655.611c17.268-17.268 35.692-35.764 53.682-53.754-16.762 0-34.825 0-53.682 0 0 18.785 0 37.281 0 53.754zM562.322 209.755c-83.81 0-166.32 0-249.335 0 0 152.014 0 304.173 0 456.837 75.863 0 151.653 0 228.382 0 0-32.079 0-63.941 0-96.96 33.018 0 65.17 0 98.188 0 0.217-4.191 0.578-7.297 0.578-10.404 0.072-25.143-0.145-50.286 0.145-75.357-0.506-9.176-6.358-12.716-10.26-14.017-1.084-0.217-2.168-0.506-3.251-0.723-0.072 0-0.145 0-0.145 0h0.072c-33.958-8.381-63.291-28.539-83.521-55.777h-179.108c-4.696 0-8.453-3.757-8.453-8.453s3.757-8.453 8.453-8.453h168.054c-11.632-21.169-18.279-45.518-18.279-71.455 0-46.312 21.242-87.712 54.404-114.95h-6.286c0.145-0.072 0.289-0.145 0.361-0.289zM662.388 192.993c-72.9 0-132.001 59.101-132.001 132.001 0 19.797 4.407 38.654 12.21 55.488 0.434-0.072 0.939-0.072 1.373-0.072h35.186l26.082-116.25c1.156-4.985 5.563-8.598 10.693-8.598h8.381c-3.757-3.54-6.069-8.598-6.069-14.161 0-10.838 8.815-19.652 19.652-19.652s19.652 8.815 19.652 19.652c0 5.563-2.312 10.621-6.069 14.161h55.127c-3.757-3.54-6.069-8.598-6.069-14.161 0-10.838 8.815-19.652 19.652-19.652s19.652 8.815 19.652 19.652c0 5.563-2.312 10.621-6.069 14.161h11.271c6.069 0 10.982 4.913 10.982 10.982s-4.913 10.982-10.982 10.982h-120.296l-2.601 11.488h102.089c31.573 0 42.339 31.068 46.385 42.772 3.035 8.815 9.248 30.634 0.65 42.7-2.529 3.54-7.37 7.731-16.112 7.731h-113.649c-4.046 0-7.297-3.251-7.297-7.297s3.251-7.297 7.297-7.297h113.649c3.035 0 3.829-1.084 4.191-1.59 2.673-3.685 2.095-14.017-1.228-25.288-0.434 0.145-0.867 0.217-1.301 0.217h-146.306l-11.849 52.959c-1.156 4.985-5.563 8.598-10.693 8.598h-32.513c23.987 33.091 63.002 54.693 107.002 54.693 72.9 0 132.001-59.101 132.001-132.001 0-73.117-59.101-132.218-132.073-132.218zM612.68 331.28h142.116c-7.659-19.508-16.762-27.672-30.634-27.672h-105.268l-6.214 27.672zM520.778 334.315h-156.71c-4.696 0-8.453 3.757-8.453 8.453s3.757 8.453 8.453 8.453h156.71c4.696 0 8.453-3.757 8.453-8.453s-3.757-8.453-8.453-8.453z" />
<glyph unicode="&#xe630;" glyph-name="bz-10" d="M513.048-54.824c-67.843 0-133.735 13.294-195.725 39.521-59.895 25.288-113.649 61.557-159.817 107.725s-82.437 99.922-107.725 159.817c-26.227 61.991-39.521 127.81-39.521 195.725s13.294 133.735 39.521 195.725c25.288 59.895 61.557 113.649 107.725 159.817 46.24 46.168 99.994 82.437 159.889 107.725 61.991 26.227 127.81 39.521 195.725 39.521 67.843 0 133.735-13.294 195.725-39.521 59.895-25.288 113.649-61.557 159.817-107.725s82.437-99.922 107.725-159.817c26.227-61.991 39.521-127.81 39.521-195.725s-13.294-133.735-39.521-195.725c-25.288-59.895-61.557-113.649-107.725-159.817s-99.922-82.437-159.817-107.725c-62.063-26.227-127.883-39.521-195.798-39.521zM513.048 939.192c-270.865 0-491.228-220.363-491.228-491.228s220.363-491.228 491.228-491.228c270.865 0 491.228 220.363 491.228 491.228s-220.363 491.228-491.228 491.228zM430.177 465.015c-32.007 8.237-39.954 12.138-39.954 24.348v0.506c0 8.959 8.237 16.112 23.77 16.112 12.716 0 25.432-4.48 38.943-12.427 3.179-1.879 6.286-2.962 10.332-2.962 10.549 0 19.074 8.237 19.074 18.785 0 7.948-4.552 13.511-9.031 16.112-11.632 7.442-24.854 12.355-39.376 14.667v13.944c0 9.754-7.875 17.629-17.629 17.629s-17.629-7.875-17.629-17.629v-13.8c-29.189-5.419-48.913-25.649-48.913-54.26v-0.506c0-36.775 24.132-47.107 61.413-56.644 30.995-7.948 37.353-13.222 37.353-23.554v-0.506c0-10.838-10.043-17.485-26.733-17.485-17.99 0-33.307 6.358-47.396 16.69-2.673 1.806-6.358 3.685-11.632 3.685-10.621 0-19.074-8.164-19.074-18.785 0-6.358 3.179-12.138 7.659-15.317 14.378-10.26 30.634-16.762 47.324-19.941v-14.595c0-9.754 7.875-17.629 17.629-17.629 9.682 0 17.629 7.875 17.629 17.629v13.294c32.874 4.118 55.055 23.915 55.055 56.572v0.506c0 32.296-21.242 45.807-58.812 55.56v0zM516.154 258.452h-209.381c-26.082 0-47.252 21.169-47.252 47.252v288.061c0 26.082 21.169 47.252 47.252 47.252h331.194c26.082 0 47.252-21.169 47.252-47.252v-75.863c0-6.792-5.491-12.355-12.355-12.355-6.792 0-12.355 5.491-12.355 12.355v75.863c0 12.499-10.115 22.614-22.614 22.614h-331.122c-12.499 0-22.614-10.115-22.614-22.614v-288.061c0-12.499 10.115-22.614 22.614-22.614h209.308c6.792 0 12.355-5.491 12.355-12.355 0-6.792-5.491-12.283-12.283-12.283zM755.158 374.558h-173.545c-13.583 0-24.637 11.054-24.637 24.637s11.054 24.637 24.637 24.637h173.617c13.583 0 24.637-11.054 24.637-24.637s-11.054-24.637-24.71-24.637zM755.158 436.187h-173.545c-13.583 0-24.637 11.054-24.637 24.637s11.054 24.637 24.637 24.637h173.617c13.583 0 24.637-11.054 24.637-24.637s-11.054-24.637-24.71-24.637zM755.158 315.385h-173.545c-13.583 0-24.637 11.054-24.637 24.637s10.982 24.637 24.637 24.637h173.617c13.583 0 24.637-11.054 24.637-24.637s-11.054-24.637-24.71-24.637zM755.158 254.984h-173.545c-13.583 0-24.637 11.054-24.637 24.637s11.054 24.637 24.637 24.637h173.617c13.583 0 24.637-11.054 24.637-24.637s-11.054-24.637-24.71-24.637z" />
<glyph unicode="&#xe631;" glyph-name="bz-11" d="M513.048-54.824c-67.843 0-133.735 13.294-195.725 39.521-59.895 25.288-113.649 61.557-159.817 107.725s-82.437 99.922-107.725 159.817c-26.227 61.991-39.521 127.81-39.521 195.725s13.294 133.735 39.521 195.725c25.288 59.895 61.557 113.649 107.725 159.817 46.24 46.168 99.994 82.437 159.889 107.725 61.991 26.227 127.81 39.521 195.725 39.521 67.843 0 133.735-13.294 195.725-39.521 59.895-25.288 113.649-61.557 159.817-107.725s82.437-99.922 107.725-159.817c26.227-61.991 39.521-127.81 39.521-195.725s-13.294-133.735-39.521-195.725c-25.288-59.895-61.557-113.649-107.725-159.817s-99.922-82.437-159.817-107.725c-62.063-26.227-127.883-39.521-195.798-39.521zM513.048 939.192c-270.865 0-491.228-220.363-491.228-491.228s220.363-491.228 491.228-491.228c270.865 0 491.228 220.363 491.228 491.228s-220.363 491.228-491.228 491.228zM507.918 437.054c-6.358 5.708-16.401 8.887-30.128 8.887-11.127 0-19.941-0.939-26.66-2.095l0.072-106.208h13.872v43.061c3.179-0.795 7.008-0.939 11.127-0.939 13.583 0 25.504 3.974 32.802 11.849 5.419 5.563 8.309 13.222 8.309 22.976 0.072 9.537-3.468 17.34-9.393 22.47zM476.561 390.959c-4.624 0-8.453 0.289-11.488 1.084v41.761c2.384 0.65 7.008 1.084 13.077 1.156 15.317 0 25.36-6.864 25.36-21.025 0-14.884-10.187-22.976-26.949-22.976zM384.876 446.808c-28.683 0-49.925-22.325-49.853-56.5 0-32.513 19.941-54.549 48.335-54.477 27.455 0 49.925 19.652 49.853 56.644 0 31.935-19.002 54.404-48.335 54.332zM384.154 347.175c-21.82 0-34.319 20.519-34.319 43.495 0 23.626 11.488 44.795 34.391 44.795 23.12 0 34.319-22.325 34.319-43.639 0-24.348-12.427-44.651-34.391-44.651zM549.895 349.343v38.726l41.761 0.072v11.488l-41.761-0.072v33.958l44.145 0.072v11.632l-58.017-0.072 0.072-107.436 60.401 0.072v11.632zM682.040 445.218v-44.94c0-16.762 0.361-29.839 1.59-44.145l-0.289-0.145c-5.13 10.982-11.343 22.325-19.291 34.897l-34.463 54.332h-15.173l0.072-107.436h13.077v45.951c0 17.846-0.361 30.779-1.156 44.289l0.506 0.145c5.419-11.632 12.644-23.915 20.086-35.836l34.174-54.477h14.017l-0.072 107.436-13.077-0.072zM224.914 260.041l-0.072 98.766h8.526c17.846 0 32.368 14.522 32.368 32.368s-14.522 32.368-32.368 32.368h-8.526v8.526l-0.072 90.24 585.731 0.361 0.072-98.766h-8.526c-17.846 0-32.368-14.522-32.368-32.368s14.522-32.368 32.368-32.368h8.526v-8.526l0.072-90.24-585.731-0.361zM241.893 342.551l0.072-65.386 551.701 0.289-0.072 65.386c-23.192 4.046-40.894 24.348-40.894 48.624 0 24.348 17.701 44.651 40.894 48.697l-0.072 65.386-551.701-0.289 0.072-65.386c23.192-4.046 40.894-24.348 40.894-48.624 0-24.348-17.701-44.651-40.894-48.697zM555.025 677.213c0-20.709-16.788-37.498-37.498-37.498s-37.498 16.788-37.498 37.498c0 20.709 16.788 37.498 37.498 37.498s37.498-16.788 37.498-37.498zM532.411 625.627l87.784-90.674h45.662l-107.364 110.976c-6.069-9.465-15.245-16.762-26.082-20.302zM502.788 625.627c-10.91 3.468-20.086 10.765-26.082 20.23l-107.291-111.048h45.662l87.712 90.818z" />
</font>
</defs>
</svg>
